<?xml version="1.0" encoding="UTF-8"?>
<svg id="Layer_1" data-name="Layer 1" xmlns="http://www.w3.org/2000/svg" viewBox="0 0 620 571.65">
  <defs>
    <style>
      .cls-1 {
        fill: #9c0;
      }

      .cls-2 {
        fill: #0ead69;
      }

      .cls-3 {
        fill: #2d1e2f;
      }
    </style>
  </defs>
  <path class="cls-2" d="M380.28,362.66h0c-3.28,3.28-193.01,191.78-193.01,191.78,35.24,11.06,75.4,17.21,119.25,17.21,175.8,0,285.21-78.68,297.09-212.27,1.64-17.21,6.97-33.6,15.98-48.35h-113.1c-47.12,0-92.61,18.44-126.21,52.04v-.41Z"/>
  <path class="cls-3" d="M293.81,398.72c-31.96,0-63.93-11.88-88.1-36.06h0c-42.62-42.62-42.62-111.46,0-153.67h0c24.18-24.18,56.14-36.47,88.1-36.06l-74.99-74.99c-47.53-47.53-126.21-42.21-165.96,11.88C18.44,156.54,0,216.36,0,286.03s18.44,129.49,52.86,176.21c39.75,53.68,118.43,59.01,165.96,11.88l74.99-74.99v-.41Z"/>
  <path class="cls-1" d="M306.52,0c-43.85,0-84.01,5.74-119.25,17.21,0,0,189.73,188.5,193.01,191.78h0c33.19,33.19,78.27,52.04,125.39,52.04h114.33c-9.02-14.34-14.34-30.73-15.98-47.94C592.54,79.5,483.13.41,306.93.41l-.41-.41Z"/>
</svg>