<?xml version="1.0" standalone="no"?>
<!DOCTYPE svg PUBLIC "-//W3C//DTD SVG 20010904//EN"
 "http://www.w3.org/TR/2001/REC-SVG-20010904/DTD/svg10.dtd">
<svg version="1.0" xmlns="http://www.w3.org/2000/svg"
 width="630.000000pt" height="630.000000pt" viewBox="0 0 630.000000 630.000000"
 preserveAspectRatio="xMidYMid meet">
<metadata>
Created by potrace 1.14, written by Peter Selinger 2001-2017
</metadata>
<g transform="translate(0.000000,630.000000) scale(0.100000,-0.100000)"
fill="#000000" stroke="none">
<path d="M3117 4943 c-3 -2 -56 -6 -119 -9 -162 -5 -204 -9 -373 -35 -113 -17
-176 -29 -275 -54 -36 -9 -75 -18 -87 -21 -12 -2 -34 -9 -48 -14 -14 -5 -25
-7 -25 -4 0 4 -6 2 -12 -3 -11 -9 -36 -17 -83 -29 -30 -7 -172 -61 -252 -96
-23 -10 -49 -18 -57 -18 -9 0 -16 -3 -16 -8 0 -4 -27 -18 -60 -31 -33 -13 -60
-29 -60 -34 0 -6 -3 -8 -6 -4 -4 3 -32 -8 -63 -25 -31 -17 -72 -40 -91 -51
-88 -49 -125 -72 -128 -79 -2 -4 -10 -8 -17 -8 -7 0 -27 -11 -43 -25 -17 -14
-33 -25 -36 -25 -6 0 -105 -69 -116 -80 -3 -3 -41 -32 -85 -65 -44 -33 -82
-63 -85 -66 -3 -3 -27 -25 -55 -49 -67 -56 -237 -224 -302 -297 -81 -91 -94
-106 -122 -143 -14 -19 -32 -41 -39 -48 -18 -20 -144 -200 -172 -247 -13 -22
-27 -42 -31 -45 -3 -3 -18 -27 -32 -55 -25 -45 -25 -51 -11 -72 8 -13 28 -46
45 -74 40 -68 128 -200 148 -221 27 -29 41 -47 41 -53 0 -5 93 -120 170 -209
43 -49 206 -211 267 -264 32 -28 69 -60 83 -72 14 -12 41 -34 60 -49 19 -14
40 -31 45 -37 6 -6 41 -33 80 -60 245 -172 462 -292 720 -397 98 -40 274 -103
315 -112 8 -2 70 -18 138 -35 133 -34 251 -57 322 -64 25 -3 61 -8 80 -11 75
-14 315 -27 450 -25 148 2 362 15 400 25 8 2 35 7 60 10 25 3 56 8 70 10 14 3
41 7 60 11 19 3 40 7 45 8 6 1 37 8 70 15 33 7 101 24 150 38 50 14 97 26 105
28 8 2 55 18 105 35 53 18 91 26 93 20 2 -5 12 -10 22 -10 9 0 23 -7 30 -15 7
-8 16 -15 21 -15 4 0 30 -13 57 -29 51 -30 114 -66 198 -112 28 -16 106 -60
174 -98 68 -39 126 -69 128 -66 2 2 -6 18 -18 34 -12 17 -18 31 -15 31 3 0 -2
12 -13 27 -10 16 -25 42 -34 58 -8 17 -28 55 -45 85 -17 30 -47 87 -68 125
-20 39 -48 88 -61 111 l-24 40 38 21 c20 12 41 21 46 21 5 0 12 4 15 9 3 5 44
31 90 57 116 67 306 199 407 283 11 10 45 38 75 63 62 51 353 340 342 340 -4
0 0 6 8 13 9 6 35 37 60 67 61 76 64 80 98 125 17 22 35 45 41 52 5 7 10 16
10 22 0 5 3 11 8 13 4 2 27 35 52 73 24 39 47 72 50 75 3 3 11 16 19 30 8 14
22 37 30 52 13 23 14 31 4 48 -7 11 -19 30 -25 42 -64 111 -223 331 -350 484
-100 119 -440 434 -517 478 -9 5 -23 16 -31 24 -21 22 -250 172 -261 172 -5 0
-9 3 -9 8 0 4 -10 12 -23 18 -12 6 -83 43 -157 81 -213 111 -521 232 -685 269
-5 1 -37 9 -70 17 -96 25 -254 54 -330 62 -16 2 -43 6 -60 9 -37 7 -143 16
-257 20 -48 3 -91 7 -96 9 -4 3 -14 2 -21 -3 -8 -4 -26 -4 -42 0 -15 5 -30 6
-32 3z"/>
</g>
</svg>
