<?xml version="1.0" encoding="UTF-8" standalone="no"?>
<svg
   xmlns:dc="http://purl.org/dc/elements/1.1/"
   xmlns:cc="http://creativecommons.org/ns#"
   xmlns:rdf="http://www.w3.org/1999/02/22-rdf-syntax-ns#"
   xmlns:svg="http://www.w3.org/2000/svg"
   xmlns="http://www.w3.org/2000/svg"
   xmlns:sodipodi="http://sodipodi.sourceforge.net/DTD/sodipodi-0.dtd"
   xmlns:inkscape="http://www.inkscape.org/namespaces/inkscape"
   width="600px"
   height="380px"
   viewBox="0 0 600 380"
   version="1.1"
   id="svg7"
   sodipodi:docname="about-calyxos.svg"
   inkscape:version="0.92.5 (2060ec1f9f, 2020-04-08)">
  <metadata
     id="metadata13">
    <rdf:RDF>
      <cc:Work
         rdf:about="">
        <dc:format>image/svg+xml</dc:format>
        <dc:type
           rdf:resource="http://purl.org/dc/dcmitype/StillImage" />
      </cc:Work>
    </rdf:RDF>
  </metadata>
  <defs
     id="defs11" />
  <sodipodi:namedview
     pagecolor="#ffffff"
     bordercolor="#666666"
     borderopacity="1"
     objecttolerance="10"
     gridtolerance="10"
     guidetolerance="10"
     inkscape:pageopacity="0"
     inkscape:pageshadow="2"
     inkscape:window-width="1347"
     inkscape:window-height="806"
     id="namedview9"
     showgrid="false"
     inkscape:zoom="0.57833333"
     inkscape:cx="132.32152"
     inkscape:cy="6.8054672"
     inkscape:window-x="507"
     inkscape:window-y="203"
     inkscape:window-maximized="0"
     inkscape:current-layer="svg7" />
  <title
     id="title2">placeholder</title>
  <g
     id="Page-1"
     stroke-width="1"
     stroke="none"
     fill-rule="evenodd"
     fill="none"
     style="fill:#7fcf30;fill-opacity:1">
    <g
       id="placeholder"
       fill-rule="nonzero"
       fill="#C4C4C4"
       style="fill:#7fcf30;fill-opacity:1">
      <rect
         id="Rectangle"
         x="0"
         y="0"
         width="600"
         height="380"
         style="fill:#7fcf30;fill-opacity:1" />
    </g>
  </g>
  <g
     aria-label="CalyxOS"
     style="font-style:normal;font-variant:normal;font-weight:normal;font-stretch:normal;font-size:100.86173248px;line-height:1.25;font-family:'Arial Black';-inkscape-font-specification:'Arial Black, ';letter-spacing:0px;word-spacing:0px;fill:#ffffff;fill-opacity:1;stroke:none;stroke-width:1"
     id="text828"
     transform="translate(0,4)">
    <path
       d="m 161.63377,193.15941 q -1.91637,6.95946 -6.15256,11.49823 -4.23619,4.43792 -10.08617,6.55602 -5.84999,2.01723 -12.91031,2.01723 -10.08617,0 -17.44908,-4.03447 -7.3629,-4.13533 -11.29651,-11.80082 -3.933608,-7.66549 -3.933608,-18.4577 0,-10.7922 3.933608,-18.45769 3.93361,-7.6655 11.29651,-11.69996 7.36291,-4.13534 17.34822,-4.13534 6.95946,0 12.80944,2.01724 5.84998,1.91637 9.88445,5.95084 4.03447,4.03447 5.74912,10.38876 l -15.23012,6.15257 q -1.41207,-6.25343 -4.63964,-8.57325 -3.12671,-2.31982 -7.96808,-2.31982 -4.7405,0 -8.27066,2.31982 -3.4293,2.31982 -5.34567,6.95946 -1.81551,4.53878 -1.81551,11.39737 0,6.75774 1.71465,11.39738 1.71465,4.63964 5.14394,6.95946 3.53017,2.31982 8.67411,2.31982 4.84137,0 8.1698,-2.62241 3.4293,-2.72326 4.63964,-8.27066 z"
       style="font-style:normal;font-variant:normal;font-weight:bold;font-stretch:normal;font-family:'Work Sans';-inkscape-font-specification:'Work Sans Bold';fill:#ffffff;fill-opacity:1;stroke-width:0.24875194"
       id="path820"
       inkscape:connector-curvature="0" />
    <path
       d="m 198.24656,180.24911 q 0,-3.53017 -2.01724,-5.5474 -1.91637,-2.1181 -5.24481,-2.1181 -3.32844,0 -5.74912,1.71465 -2.31982,1.61379 -3.22757,5.84998 l -14.52409,-3.4293 q 1.41206,-7.26204 7.46377,-11.59909 6.0517,-4.33706 17.04563,-4.33706 7.36291,0 12.50685,2.21896 5.24481,2.1181 7.96808,6.45515 2.82413,4.23619 2.82413,10.48962 v 18.4577 q 0,3.9336 3.53016,3.9336 1.81551,0 2.92499,-0.40344 l -1.00862,9.78359 q -3.02585,1.41206 -7.3629,1.41206 -3.93361,0 -6.95946,-1.21034 -3.02586,-1.3112 -4.7405,-3.83275 -1.71465,-2.6224 -1.71465,-6.55601 v -0.60517 l 1.91637,-0.70603 q 0,4.33705 -2.62241,7.26204 -2.52154,2.92499 -6.65687,4.33706 -4.03447,1.41206 -8.47239,1.41206 -5.14394,0 -8.97669,-1.61379 -3.83275,-1.61378 -5.95084,-4.63964 -2.01724,-3.12671 -2.01724,-7.66549 0,-5.44653 3.22758,-8.97669 3.32844,-3.63102 10.38876,-5.04309 l 19.06286,-3.93361 -0.10086,9.07756 -9.68272,2.01724 q -3.02586,0.60517 -4.53878,1.81551 -1.41207,1.10948 -1.41207,3.4293 0,2.21895 1.61379,3.32843 1.61379,1.10948 3.83275,1.10948 1.71465,0 3.22757,-0.50431 1.61379,-0.50431 2.82413,-1.51292 1.21034,-1.10948 1.91637,-2.72327 0.70604,-1.61379 0.70604,-3.83275 z"
       style="font-style:normal;font-variant:normal;font-weight:bold;font-stretch:normal;font-family:'Work Sans';-inkscape-font-specification:'Work Sans Bold';fill:#ffffff;fill-opacity:1;stroke-width:0.24875194"
       id="path822"
       inkscape:connector-curvature="0" />
    <path
       d="m 245.44971,140.40872 v 54.66706 q 0,3.32844 1.10948,4.7405 1.10948,1.41207 3.73188,1.41207 1.51293,0 2.52154,-0.20173 1.00862,-0.20172 2.42069,-0.60517 l -1.10948,10.2879 q -1.81551,1.10948 -4.7405,1.81551 -2.92499,0.70603 -5.74912,0.70603 -8.06894,0 -11.69996,-3.73188 -3.63103,-3.73189 -3.63103,-12.20427 v -56.88602 z"
       style="font-style:normal;font-variant:normal;font-weight:bold;font-stretch:normal;font-family:'Work Sans';-inkscape-font-specification:'Work Sans Bold';fill:#ffffff;fill-opacity:1;stroke-width:0.24875194"
       id="path824"
       inkscape:connector-curvature="0" />
    <path
       d="m 310.50546,161.79141 -18.35683,50.43086 q -2.82413,7.96808 -6.15257,12.70858 -3.32844,4.7405 -7.86721,6.8586 -4.53878,2.1181 -10.89307,2.1181 -4.23619,0 -7.76635,-0.90776 -3.53016,-0.90775 -6.15257,-2.52154 l 3.4293,-11.5991 q 1.81551,1.3112 3.83275,1.81551 2.01723,0.60517 5.14394,0.60517 2.92499,0 4.74051,-1.00862 1.91637,-1.00861 3.02585,-3.83274 l 1.3112,-3.12672 -5.84998,-13.71719 -15.12926,-37.82315 h 18.86114 l 7.76636,28.74559 2.42068,10.69135 2.82413,-11.09479 7.76635,-28.34215 z"
       style="font-style:normal;font-variant:normal;font-weight:bold;font-stretch:normal;font-family:'Work Sans';-inkscape-font-specification:'Work Sans Bold';fill:#ffffff;fill-opacity:1;stroke-width:0.24875194"
       id="path826"
       inkscape:connector-curvature="0" />
    <path
       d="m 331.38383,161.79141 12.30513,22.69389 5.64826,-0.50431 19.86976,28.24128 H 349.53894 L 336.83036,189.2258 h -5.95084 l -19.26459,-27.43439 z m 37.4197,0 -19.06287,27.23267 -6.35429,-0.40345 -13.21288,23.60164 H 310.9089 l 20.2732,-28.443 5.84998,0.80689 12.50686,-22.79475 z"
       style="font-style:normal;font-variant:normal;font-weight:bold;font-stretch:normal;font-family:'Work Sans';-inkscape-font-specification:'Work Sans Bold';fill:#ffffff;fill-opacity:1;stroke-width:0.24875194"
       id="path828"
       inkscape:connector-curvature="0" />
    <path
       d="m 406.42477,144.64491 q 10.08617,0 17.34821,4.13534 7.36291,4.03446 11.29652,11.69996 3.93361,7.66549 3.93361,18.45769 0,10.79221 -3.93361,18.4577 -3.93361,7.66549 -11.29652,11.80082 -7.26204,4.03447 -17.34821,4.03447 -10.08618,0 -17.44908,-4.03447 -7.36291,-4.13533 -11.29652,-11.80082 -3.9336,-7.66549 -3.9336,-18.4577 0,-10.7922 3.9336,-18.45769 3.93361,-7.6655 11.29652,-11.69996 7.3629,-4.13534 17.44908,-4.13534 z m 0,13.61634 q -4.84137,0 -8.1698,2.31982 -3.32844,2.31982 -5.04309,6.95946 -1.71465,4.53878 -1.71465,11.39737 0,6.75774 1.71465,11.39738 1.71465,4.63964 5.04309,6.95946 3.32843,2.31982 8.1698,2.31982 4.84136,0 8.06893,-2.31982 3.32844,-2.31982 5.04309,-6.95946 1.71465,-4.63964 1.71465,-11.39738 0,-6.85859 -1.71465,-11.39737 -1.71465,-4.63964 -5.04309,-6.95946 -3.22757,-2.31982 -8.06893,-2.31982 z"
       style="font-style:normal;font-variant:normal;font-weight:bold;font-stretch:normal;font-family:'Work Sans';-inkscape-font-specification:'Work Sans Bold';fill:#ffffff;fill-opacity:1;stroke-width:0.24875194"
       id="path830"
       inkscape:connector-curvature="0" />
    <path
       d="m 476.32185,144.64491 q 9.27928,0 16.3396,2.92499 7.16118,2.82413 12.40599,8.37153 l -8.37152,11.19565 q -4.33706,-4.53878 -9.38014,-6.75774 -4.94223,-2.31982 -11.29652,-2.31982 -3.73188,0 -6.0517,0.8069 -2.31982,0.80689 -3.32844,2.21896 -1.00862,1.41206 -1.00862,3.22757 0,2.1181 1.91638,3.63102 2.01723,1.41207 6.45515,2.42069 l 11.19565,2.52154 q 9.98531,2.31982 14.62495,6.75774 4.63964,4.43791 4.63964,11.80082 0,7.06032 -3.63102,12.00254 -3.63102,4.84137 -9.98531,7.36291 -6.35429,2.42068 -14.52409,2.42068 -6.65688,0 -12.70858,-1.41206 -6.0517,-1.51293 -10.89307,-4.23619 -4.84136,-2.72327 -8.1698,-6.25343 l 8.37153,-11.5991 q 2.52154,2.92499 6.15256,5.24481 3.73189,2.21896 8.06894,3.53016 4.43792,1.3112 8.97669,1.3112 3.53017,0 5.84999,-0.70603 2.42068,-0.70603 3.53016,-2.1181 1.10948,-1.41206 1.10948,-3.32843 0,-2.1181 -1.51293,-3.53016 -1.51293,-1.51293 -5.74912,-2.52155 l -12.30513,-2.72326 q -5.64826,-1.31121 -10.08617,-3.4293 -4.33706,-2.21896 -6.8586,-5.84998 -2.52155,-3.73189 -2.52155,-9.27928 0,-6.25343 3.4293,-11.09479 3.4293,-4.94223 9.88445,-7.76636 6.45515,-2.82413 15.43185,-2.82413 z"
       style="font-style:normal;font-variant:normal;font-weight:bold;font-stretch:normal;font-family:'Work Sans';-inkscape-font-specification:'Work Sans Bold';fill:#ffffff;fill-opacity:1;stroke-width:0.24875194"
       id="path832"
       inkscape:connector-curvature="0" />
  </g>
</svg>
