<?xml version="1.0" encoding="UTF-8" standalone="no"?>
<svg
   xmlns:dc="http://purl.org/dc/elements/1.1/"
   xmlns:cc="http://creativecommons.org/ns#"
   xmlns:rdf="http://www.w3.org/1999/02/22-rdf-syntax-ns#"
   xmlns:svg="http://www.w3.org/2000/svg"
   xmlns="http://www.w3.org/2000/svg"
   xmlns:sodipodi="http://sodipodi.sourceforge.net/DTD/sodipodi-0.dtd"
   xmlns:inkscape="http://www.inkscape.org/namespaces/inkscape"
   width="600px"
   height="380px"
   viewBox="0 0 600 380"
   version="1.1"
   id="svg7"
   sodipodi:docname="bye-google.svg"
   inkscape:version="0.92.5 (2060ec1f9f, 2020-04-08)">
  <metadata
     id="metadata13">
    <rdf:RDF>
      <cc:Work
         rdf:about="">
        <dc:format>image/svg+xml</dc:format>
        <dc:type
           rdf:resource="http://purl.org/dc/dcmitype/StillImage" />
        <dc:title>placeholder</dc:title>
      </cc:Work>
    </rdf:RDF>
  </metadata>
  <defs
     id="defs11" />
  <sodipodi:namedview
     pagecolor="#ffffff"
     bordercolor="#666666"
     borderopacity="1"
     objecttolerance="10"
     gridtolerance="10"
     guidetolerance="10"
     inkscape:pageopacity="0"
     inkscape:pageshadow="2"
     inkscape:window-width="1347"
     inkscape:window-height="870"
     id="namedview9"
     showgrid="false"
     inkscape:zoom="0.57833335"
     inkscape:cx="229.16718"
     inkscape:cy="-155.87433"
     inkscape:window-x="432"
     inkscape:window-y="112"
     inkscape:window-maximized="0"
     inkscape:current-layer="svg7" />
  <title
     id="title2">placeholder</title>
  <g
     id="Page-1"
     stroke-width="1"
     stroke="none"
     fill-rule="evenodd"
     fill="none"
     style="fill:#729fcf;fill-opacity:1">
    <g
       id="placeholder"
       fill-rule="nonzero"
       fill="#C4C4C4"
       style="fill:#729fcf;fill-opacity:1">
      <rect
         id="Rectangle"
         x="0"
         y="0"
         width="600"
         height="380"
         style="fill:#729fcf;fill-opacity:1" />
    </g>
  </g>
  <g
     id="g830"
     transform="matrix(1,0,0,0.38631963,0,233.19854)"
     style="fill:#3465a4;fill-opacity:1;fill-rule:evenodd;stroke:none;stroke-width:1.60889089">
    <g
       id="g828"
       style="fill:#3465a4;fill-opacity:1;fill-rule:nonzero;stroke-width:3.69056273">
      <rect
         rx="0"
         height="380"
         width="600"
         y="0"
         x="0"
         id="rect826"
         style="fill:#3465a4;fill-opacity:1;stroke-width:1.60889089"
         ry="0" />
    </g>
  </g>
  <path
     style="fill:#dfdfdf;fill-opacity:1;stroke:none;stroke-width:1px;stroke-linecap:butt;stroke-linejoin:miter;stroke-opacity:1"
     d="m 373.33031,209.44175 0.98227,-57.48756 108.54247,35.49673 1.03751,36.79402 c -39.98253,1.74466 -74.64349,-7.87347 -110.56225,-14.80319 z"
     id="path844"
     inkscape:connector-curvature="0"
     sodipodi:nodetypes="ccccc" />
  <path
     style="fill:#000000;fill-opacity:1;stroke:none;stroke-width:0.99999994px;stroke-linecap:butt;stroke-linejoin:miter;stroke-opacity:1"
     d="m 341.61929,151.84634 0.48705,-57.378297 16.07263,-3.40379 17.53379,3.89005 -0.48705,58.837077 z"
     id="path848"
     inkscape:connector-curvature="0" />
  <path
     style="fill:#cacaca;fill-opacity:1;stroke:none;stroke-width:1px;stroke-linecap:butt;stroke-linejoin:miter;stroke-opacity:1"
     d="m 375.83704,151.95419 -89.60936,2.08414 -0.43333,52.43189 29.38122,1.51276 36.67637,4.12829 23.26153,-2.66952 z"
     id="path846"
     inkscape:connector-curvature="0"
     sodipodi:nodetypes="ccccccc" />
  <path
     style="fill:#41494c;fill-opacity:1;stroke:none;stroke-width:0.99999994px;stroke-linecap:butt;stroke-linejoin:miter;stroke-opacity:1"
     d="m 341.38555,199.57525 -14.98123,-1.37535 -28.41269,1.06999 -13.50473,1.31824 -14.52482,-1.58575 -28.96801,-1.83399 -1.20538,5.67329 1.41214,20.61089 2.82846,6.95335 11.64091,8.42427 29.60193,7.14483 45.43714,-7.54638 9.4709,-4.9856 3.78835,-4.46987 0.51659,-21.3178 -3.09956,-8.08012"
     id="path842"
     inkscape:connector-curvature="0"
     sodipodi:nodetypes="cccccccccccccccc" />
  <path
     style="fill:#000000;fill-opacity:1;stroke:none;stroke-width:0.99999994px;stroke-linecap:butt;stroke-linejoin:miter;stroke-opacity:1"
     d="m 403.88989,161.58175 -1.5707,-49.11193 13.63739,-5.34882 14.81876,4.1604 0.87047,58.45875 z"
     id="path850"
     inkscape:connector-curvature="0"
     sodipodi:nodetypes="cccccc" />
  <ellipse
     style="opacity:1;fill:#ffffff;fill-opacity:1;stroke:none;stroke-width:11.19999981;stroke-linecap:square;stroke-linejoin:miter;stroke-miterlimit:4;stroke-dasharray:none;stroke-dashoffset:0;stroke-opacity:1"
     id="path852"
     cx="151.7291"
     cy="6.0806985"
     rx="43.659943"
     ry="28.097982" />
  <ellipse
     style="opacity:1;fill:#ffffff;fill-opacity:1;stroke:none;stroke-width:11.19999981;stroke-linecap:square;stroke-linejoin:miter;stroke-miterlimit:4;stroke-dasharray:none;stroke-dashoffset:0;stroke-opacity:1"
     id="path854"
     cx="235.59077"
     cy="44.553326"
     rx="39.337173"
     ry="37.175793" />
  <ellipse
     style="opacity:1;fill:#ffffff;fill-opacity:1;stroke:none;stroke-width:11.19999981;stroke-linecap:square;stroke-linejoin:miter;stroke-miterlimit:4;stroke-dasharray:none;stroke-dashoffset:0;stroke-opacity:1"
     id="path856"
     cx="330.38104"
     cy="34.253094"
     rx="40.755711"
     ry="28.60467" />
  <ellipse
     style="opacity:1;fill:#ffffff;fill-opacity:1;stroke:none;stroke-width:11.19999981;stroke-linecap:square;stroke-linejoin:miter;stroke-miterlimit:4;stroke-dasharray:none;stroke-dashoffset:0;stroke-opacity:1"
     id="path858"
     cx="284.43802"
     cy="16.455341"
     rx="30.259365"
     ry="36.743515" />
  <ellipse
     style="opacity:1;fill:#ffffff;fill-opacity:1;stroke:none;stroke-width:11.19999981;stroke-linecap:square;stroke-linejoin:miter;stroke-miterlimit:4;stroke-dasharray:none;stroke-dashoffset:0;stroke-opacity:1"
     id="path860"
     cx="408.06915"
     cy="79.135452"
     rx="16.426512"
     ry="14.697406" />
  <ellipse
     style="opacity:1;fill:#ffffff;fill-opacity:1;stroke:none;stroke-width:11.19999981;stroke-linecap:square;stroke-linejoin:miter;stroke-miterlimit:4;stroke-dasharray:none;stroke-dashoffset:0;stroke-opacity:1"
     id="path862"
     cx="367.00287"
     cy="64.438049"
     rx="17.723343"
     ry="18.155619" />
  <path
     style="fill:#495155;fill-opacity:1;stroke:none;stroke-width:0.99999994px;stroke-linecap:butt;stroke-linejoin:miter;stroke-opacity:1"
     d="m 511.21157,218.86804 0.30567,24.71813 -110.03457,13.40958 -14.63683,1.54727 -11.88167,-11.34657 -18.76959,-12.55 -24.75836,-5.67328 1.12793,-22.84613 1.79109,-7.46879 73.32656,6.76219 3.78836,3.78219 0.1722,1.89109 89.55552,8.92049 z"
     id="path838"
     inkscape:connector-curvature="0"
     sodipodi:nodetypes="cccccccccccccc" />
  <path
     style="fill:#363c3e;stroke:none;stroke-width:0.99999994px;stroke-linecap:butt;stroke-linejoin:miter;stroke-opacity:1;fill-opacity:1"
     d="m 386.84584,258.54302 -11.88167,-11.34657 -18.76959,-12.55 -25.36969,-10.56393 -10.51299,5.9982 -13.43145,6.78142 -21.3966,3.66799 -33.22362,-6.17041 -8.23094,-3.9538 7.78763,12.56923 12.0795,9.89458 6.71573,3.61027 67.67383,2.06302 h 48.55986"
     id="path840"
     inkscape:connector-curvature="0"
     sodipodi:nodetypes="cccccccccccccc" />
  <path
     style="fill:#ea4335;stroke-width:1"
     inkscape:connector-curvature="0"
     d="m 426.097,195.44051 c 0,4.87144 -3.81092,7.37324 -8.48781,6.03817 -4.67688,-1.33507 -8.48781,-6.01262 -8.48781,-10.88406 0,-4.90576 3.81093,-7.37324 8.48781,-6.03816 4.67689,1.33507 8.48781,5.97829 8.48781,10.88405 z m -3.71556,-1.06065 c 0,-3.04417 -2.20874,-5.75753 -4.77225,-6.48931 -2.56351,-0.73179 -4.77224,0.72055 -4.77224,3.76472 0,3.01365 2.20873,5.75754 4.77224,6.48932 2.56351,0.73178 4.77225,-0.7549 4.77225,-3.76473 z"
     id="path864" />
  <path
     style="fill:#fbbc05;stroke-width:1"
     inkscape:connector-curvature="0"
     d="m 443.31523,199.70602 c 0,4.38429 -3.42984,6.6359 -7.63904,5.43435 -4.20919,-1.20158 -7.63903,-5.41136 -7.63903,-9.79566 0,-4.41175 3.42984,-6.63591 7.63903,-5.43434 4.2092,1.20156 7.63904,5.38045 7.63904,9.79565 z m -3.34401,-0.95459 c 0,-2.73975 -1.98787,-5.18178 -4.29503,-5.84039 -2.30716,-0.6586 -4.29502,0.64851 -4.29502,3.38826 0,2.71229 1.98786,5.18177 4.29502,5.84038 2.30716,0.65862 4.29503,-0.6794 4.29503,-3.38825 z"
     id="path866" />
  <path
     style="fill:#4285f4;stroke-width:1"
     inkscape:connector-curvature="0"
     d="m 457.02696,196.80834 v 12.30417 c 0,5.06132 -2.98489,6.27643 -6.51361,5.26911 -3.32168,-0.94821 -5.32088,-3.74058 -6.07483,-5.77269 l 2.62028,-0.34276 c 0.46658,1.24867 1.60985,2.89134 3.45145,3.41706 2.25876,0.64477 3.65851,-0.34922 3.65851,-2.97258 v -0.9857 l -0.10506,-0.03 c -0.67361,0.63891 -1.97138,0.99458 -3.60906,0.5271 -3.42675,-0.97821 -6.56614,-4.85928 -6.56614,-8.70009 0,-3.86859 3.13939,-5.98203 6.56614,-5.00383 1.63458,0.46661 2.93236,1.56322 3.60906,2.56287 l 0.10506,0.03 v -1.11548 l 2.8582,0.81591 z m -2.64499,5.70911 c 0,-2.41324 -1.60987,-4.63716 -3.6585,-5.22196 -2.07645,-0.59274 -3.81609,0.67502 -3.81609,3.08826 0,2.38854 1.73964,4.62477 3.81609,5.21753 2.04863,0.5848 3.6585,-0.69529 3.6585,-3.08383 z"
     id="path868" />
  <path
     style="fill:#34a853;stroke-width:1"
     inkscape:connector-curvature="0"
     d="m 461.98124,189.84451 v 18.07618 l -2.64192,-0.75416 v -18.07617 z"
     id="path870" />
  <path
     style="fill:#ea4335;stroke-width:1"
     inkscape:connector-curvature="0"
     d="m 472.29584,206.57905 1.70294,1.62142 c -0.54963,0.65629 -1.87414,1.67929 -4.16275,1.02598 -2.83824,-0.81022 -4.9579,-3.6093 -4.9579,-6.4115 0,-2.97114 2.13768,-4.38597 4.71237,-3.651 2.59271,0.74012 3.8609,3.16549 4.27538,4.39884 l 0.2275,0.6326 -6.67885,0.85958 c 0.51131,1.14836 1.30647,1.88668 2.4215,2.20498 1.11727,0.31893 1.89217,-0.009 2.45981,-0.6809 z m -5.24174,-3.29386 4.46461,-0.5794 c -0.24553,-0.69405 -0.98439,-1.33972 -1.85387,-1.58792 -1.11503,-0.31829 -2.66705,0.22304 -2.61074,2.16732 z"
     id="path872" />
  <path
     style="fill:#4285f4;stroke-width:1"
     inkscape:connector-curvature="0"
     d="m 394.88509,185.63201 v -3.98854 l 13.44063,3.83679 c 0.1314,0.73264 0.19922,1.57429 0.19922,2.46439 0,2.99246 -0.81805,6.45924 -3.45446,8.34307 -2.56437,1.93829 -5.84081,2.42716 -10.18115,1.18817 -8.04487,-2.29651 -14.8097,-10.7805 -14.8097,-18.82537 0,-8.04488 6.76483,-12.66668 14.8097,-10.37017 4.45055,1.27046 7.62102,3.92182 10.00312,6.87795 l -2.81443,2.01101 c -1.70816,-2.0898 -4.02244,-3.99659 -7.19293,-4.90164 -5.8747,-1.677 -10.46935,1.74592 -10.46935,7.62063 0,5.87472 4.59465,11.92084 10.46935,13.59784 3.81051,1.08776 5.98068,0.17712 7.37095,-0.81628 1.12747,-0.80562 1.86923,-2.20454 2.16169,-4.3209 z"
     id="path874" />
</svg>
