<?xml version="1.0" encoding="UTF-8"?>
<svg id="Layer_1" xmlns="http://www.w3.org/2000/svg" version="1.1" viewBox="0 0 612 312">
  <!-- Generator: Adobe Illustrator 29.8.7, SVG Export Plug-In . SVG Version: 2.1.1 Build 1)  -->
  <defs>
    <style>
      .st0 {
        fill: #9c0;
      }

      .st1 {
        fill: #0ead69;
      }

      .st2 {
        fill: #2d1e2f;
      }
    </style>
  </defs>
  <path class="st2" d="M166.9,181.7c0-14.3,9.9-24.6,32.9-26.9l41.4-4v-2c-.2-8-4.4-12.1-18-11.9s-13.8,4.4-15.4,7.7-3.6,4-6.4,4h-32.6v-.4c0-27.1,22.6-44.4,57.2-44.4s52.7,17.4,52.7,45.9v58h-28.5c-3.9,0-7-3.2-7-7v-13.2c0-.6-.5-1.2-1.2-1.2h0c-.5,0-1,.3-1.1.8-4.1,13.9-16.6,22.6-38.2,22.6s-36-10.5-36-27.9h.2ZM214.2,183.1c14,0,21.6-1.3,25-5.9s-.2-5.2-2.9-4.9l-26.3,3.1c-3.4.4-4.8,1.6-4.8,3.8,0,3.2,3.2,3.8,9.1,3.8h-.1Z"/>
  <path class="st2" d="M290.2,79.3v128.3h30.9c3.9,0,7.1-3.2,7.1-7.1V72.1h-30.9c-3.9,0-7.1,3.2-7.1,7.1h0Z"/>
  <path class="st2" d="M600.5,105.7h-42c-2.4,0-4.6,1.2-6,3.2l-17.3,26.6c-.3.5-.9.9-1.6.9s-1.2-.3-1.6-.8l-18.1-26.8c-1.3-2-3.5-3.1-5.9-3.1h-78.2c-3,0-5.7,1.9-6.7,4.8l-19.7,57.4c-.3.9-1.3,1.5-2.2,1.2-.6-.1-1.1-.6-1.3-1.2l-22.6-57.6c-1.1-2.7-3.7-4.5-6.6-4.5h-38.4l47.4,98c.7,1.5-.2,3.2-1.9,3.5-1.2.2-2.5.3-4,.3h-22.4c-3.9,0-7.1,3.2-7.1,7.1v27.2h18.4c29.7,0,45.3-6.3,56.2-30.3l44.7-98c1.3-2.9,5.2-3.3,7.1-.8l32,42.6c.4.5.6,1.2.6,1.8s-.2,1.3-.6,1.8l-37.4,48.5h42.1c2.4,0,4.6-1.2,5.9-3.2l17.3-25.9c.4-.5,1-.9,1.6-.9s1.2.3,1.6.8l18.1,26c1.3,1.9,3.5,3,5.8,3h42.8l-37.4-49.1c-.4-.5-.6-1.2-.6-1.8s.2-1.3.6-1.8l37.4-49.1v.2Z"/>
  <path class="st1" d="M104.2,158.6h0c-.8.8-47.1,46.8-47.1,46.8,8.6,2.7,18.4,4.2,29.1,4.2,43,0,69.7-19.3,72.5-51.9.4-4.1,1.7-8.1,3.9-11.7h-27.9c-11.4,0-22.4,4.6-30.5,12.7h0Z"/>
  <path class="st2" d="M83.2,167.4c-7.8,0-15.6-2.9-21.5-8.8h0c-10.4-10.4-10.4-27.2,0-37.5h0c5.9-5.9,13.7-8.9,21.5-8.8l-18.3-18.3c-11.6-11.6-30.8-10.3-40.5,2.9-8.4,11.4-12.9,26-12.9,43s4.5,31.6,12.9,43c9.7,13.1,28.9,14.4,40.5,2.9l18.3-18.3h0Z"/>
  <path class="st0" d="M86.3,70.1c-10.7,0-20.5,1.4-29.1,4.2,0,0,46.3,46,47.1,46.8h0c8.1,8.1,19.1,12.7,30.5,12.7h27.9c-2.2-3.5-3.5-7.5-3.9-11.7-2.8-32.6-29.5-51.9-72.5-51.9h0Z"/>
</svg>