<?xml version="1.0" encoding="UTF-8" standalone="no"?>
<!-- Generator: Adobe Illustrator 16.0.0, SVG Export Plug-In . SVG Version: 6.00 Build 0)  -->

<svg
   xmlns:dc="http://purl.org/dc/elements/1.1/"
   xmlns:cc="http://creativecommons.org/ns#"
   xmlns:rdf="http://www.w3.org/1999/02/22-rdf-syntax-ns#"
   xmlns:svg="http://www.w3.org/2000/svg"
   xmlns="http://www.w3.org/2000/svg"
   xmlns:sodipodi="http://sodipodi.sourceforge.net/DTD/sodipodi-0.dtd"
   xmlns:inkscape="http://www.inkscape.org/namespaces/inkscape"
   version="1.1"
   id="Layer_1"
   x="0px"
   y="0px"
   width="300"
   height="180"
   viewBox="0 0 300 180"
   enable-background="new 0 0 1080 322.8"
   xml:space="preserve"
   sodipodi:docname="logo.svg"
   inkscape:version="0.92.5 (2060ec1f9f, 2020-04-08)"><metadata
   id="metadata35"><rdf:RDF><cc:Work
       rdf:about=""><dc:format>image/svg+xml</dc:format><dc:type
         rdf:resource="http://purl.org/dc/dcmitype/StillImage" /><dc:title></dc:title></cc:Work></rdf:RDF></metadata><defs
   id="defs33" /><sodipodi:namedview
   pagecolor="#ffffff"
   bordercolor="#666666"
   borderopacity="1"
   objecttolerance="10"
   gridtolerance="10"
   guidetolerance="10"
   inkscape:pageopacity="0"
   inkscape:pageshadow="2"
   inkscape:window-width="1380"
   inkscape:window-height="735"
   id="namedview31"
   showgrid="false"
   fit-margin-top="0"
   fit-margin-left="0"
   fit-margin-right="0"
   fit-margin-bottom="0"
   inkscape:zoom="1.2851852"
   inkscape:cx="32.969509"
   inkscape:cy="108.38763"
   inkscape:window-x="56"
   inkscape:window-y="27"
   inkscape:window-maximized="0"
   inkscape:current-layer="Layer_1" />

<g
   id="g28"
   transform="translate(-68.864098,-75.323005)">
	
	
	
	
	
	<g
   id="g26">
		<path
   d="m 366.82,162.067 c -29.232,51.099 -84.277,85.535 -147.367,85.535 -63.089,0 -118.134,-34.437 -147.367,-85.535 29.233,-51.103 84.278,-85.54 147.367,-85.54 63.09,0 118.135,34.437 147.367,85.54"
   id="path16"
   inkscape:connector-curvature="0"
   style="fill:#9acc01" />
		<path
   d="m 310.908,255.311 -25.827,-47.503 c 8.935,-13.01 14.165,-28.763 14.165,-45.737 0,-44.671 -36.212,-80.882 -80.882,-80.882 -44.67,0 -80.882,36.21 -80.882,80.882 0,44.671 36.212,80.881 80.882,80.881 16.908,0 32.604,-5.188 45.585,-14.062 l 46.949,26.433 z"
   id="path18"
   inkscape:connector-curvature="0"
   style="fill:#ffffff" />
		
		
		<path
   d="m 259.146,182.13 c 0,21.889 -17.804,39.692 -39.691,39.692 -21.889,0 -39.694,-17.804 -39.694,-39.692 v -12.797 -33.415 -2.609 c 0,-3.035 2.47,-5.503 5.505,-5.503 3.034,0 5.503,2.468 5.503,5.503 v 29.553 c 0,1.601 1.295,2.896 2.899,2.896 0.032,0 0.063,-0.008 0.097,-0.008 0.032,0 0.062,0.008 0.095,0.008 1.601,0 2.897,-1.295 2.897,-2.896 v -44.809 c 0,-3.037 2.468,-5.507 5.505,-5.507 3.037,0 5.505,2.47 5.505,5.507 v 41.333 0.869 c 0,1.602 1.298,2.896 2.898,2.896 1.597,0 2.896,-1.295 2.896,-2.896 v -0.869 -41.333 -10.24 c 0,-3.035 2.471,-5.501 5.504,-5.501 3.037,0 5.506,2.466 5.506,5.501 v 9.08 42.975 c 0,1.603 1.297,2.899 2.897,2.899 1.599,0 2.897,-1.297 2.897,-2.899 v -42.975 c 0,-3.036 2.47,-5.505 5.505,-5.505 3.036,0 5.503,2.47 5.503,5.505 v 30.229 21.825 2.957 c -6.59,0.613 -22.117,3.955 -28.509,21.627 -0.543,1.504 0.235,3.166 1.74,3.713 0.324,0.117 0.658,0.172 0.983,0.172 1.186,0 2.296,-0.736 2.726,-1.91 6.702,-18.531 25.048,-17.97 25.819,-17.939 l 3.037,0.146 v -8.766 -21.825 c 0,-3.035 2.688,-5.505 5.988,-5.505 3.303,0 5.987,2.47 5.987,5.505 v 3.716 22.167 9.125 z m -5.987,-46.31 c -2.187,0 -4.23,0.588 -5.988,1.586 v -20.514 c 0,-6.231 -5.068,-11.301 -11.299,-11.301 -2.015,0 -3.903,0.539 -5.543,1.465 -0.393,-5.877 -5.288,-10.541 -11.263,-10.541 -6.23,0 -11.298,5.068 -11.298,11.297 v 0.378 c -1.632,-0.912 -3.506,-1.44 -5.505,-1.44 -6.229,0 -11.298,5.068 -11.298,11.301 v 5.516 c -1.676,-0.984 -3.619,-1.558 -5.699,-1.558 -6.231,0 -11.301,5.066 -11.301,11.298 v 2.609 33.415 12.797 c 0,25.081 20.406,45.487 45.49,45.487 25.081,0 45.485,-20.406 45.485,-45.487 v -9.127 -22.167 -3.716 c 0,-6.23 -5.284,-11.298 -11.781,-11.298"
   id="path24"
   inkscape:connector-curvature="0"
   style="fill:#9acc01" />
	</g>
</g>
</svg>