<?xml version="1.0" encoding="UTF-8" standalone="no"?>
<svg
   xmlns:dc="http://purl.org/dc/elements/1.1/"
   xmlns:cc="http://creativecommons.org/ns#"
   xmlns:rdf="http://www.w3.org/1999/02/22-rdf-syntax-ns#"
   xmlns:svg="http://www.w3.org/2000/svg"
   xmlns="http://www.w3.org/2000/svg"
   xmlns:sodipodi="http://sodipodi.sourceforge.net/DTD/sodipodi-0.dtd"
   xmlns:inkscape="http://www.inkscape.org/namespaces/inkscape"
   width="600px"
   height="380px"
   viewBox="0 0 600 380"
   version="1.1"
   id="svg7"
   sodipodi:docname="os-updates.svg"
   inkscape:version="0.92.5 (2060ec1f9f, 2020-04-08)">
  <metadata
     id="metadata13">
    <rdf:RDF>
      <cc:Work
         rdf:about="">
        <dc:format>image/svg+xml</dc:format>
        <dc:type
           rdf:resource="http://purl.org/dc/dcmitype/StillImage" />
      </cc:Work>
    </rdf:RDF>
  </metadata>
  <defs
     id="defs11" />
  <sodipodi:namedview
     pagecolor="#ffffff"
     bordercolor="#666666"
     borderopacity="1"
     objecttolerance="10"
     gridtolerance="10"
     guidetolerance="10"
     inkscape:pageopacity="0"
     inkscape:pageshadow="2"
     inkscape:window-width="1347"
     inkscape:window-height="806"
     id="namedview9"
     showgrid="false"
     inkscape:zoom="0.81788687"
     inkscape:cx="346.89563"
     inkscape:cy="74.662472"
     inkscape:window-x="507"
     inkscape:window-y="203"
     inkscape:window-maximized="0"
     inkscape:current-layer="svg7" />
  <title
     id="title2">placeholder</title>
  <g
     id="Page-1"
     stroke-width="1"
     stroke="none"
     fill-rule="evenodd"
     fill="none"
     style="fill:#fdf39d;fill-opacity:1">
    <g
       id="placeholder"
       fill-rule="nonzero"
       fill="#C4C4C4"
       style="fill:#fdf39d;fill-opacity:1">
      <rect
         id="Rectangle"
         x="0"
         y="0"
         width="600"
         height="380"
         style="fill:#fdf39d;fill-opacity:1" />
    </g>
  </g>
  <g
     id="g830"
     transform="matrix(1,0,0,0.19005005,0,307.78098)"
     style="fill:#fce94f;fill-rule:evenodd;stroke:none;stroke-width:2.29385519;fill-opacity:1">
    <g
       id="g828"
       style="fill:#fce94f;fill-rule:nonzero;stroke-width:5.26177168;fill-opacity:1">
      <rect
         rx="0"
         height="380"
         width="600"
         y="0"
         x="0"
         id="rect826"
         style="fill:#fce94f;fill-opacity:1;stroke-width:2.29385519"
         ry="0" />
    </g>
  </g>
  <path
     style="fill:#000000;fill-opacity:0.11499999;stroke:none;stroke-width:1px;stroke-linecap:butt;stroke-linejoin:miter;stroke-opacity:1"
     d="M 385.13884,32.152374 430.37737,306.02888 479.28389,382.44532 337.45498,380 228.02664,379.38866 201.73939,343.3201 271.43118,268.73766 Z"
     id="path845"
     inkscape:connector-curvature="0"
     sodipodi:nodetypes="cccccccc" />
  <g
     id="g927"
     transform="matrix(0.58302634,0,0,0.62699226,202.8067,28.876821)"
     style="stroke-width:1.65395927">
    <rect
       style="opacity:1;fill:#000000;fill-opacity:1;stroke:none;stroke-width:21.33607292;stroke-linecap:square;stroke-linejoin:miter;stroke-miterlimit:4;stroke-dasharray:none;stroke-dashoffset:0;stroke-opacity:1"
       id="rect937"
       width="319.80734"
       height="517.73688"
       x="-2.2193627"
       y="-3.5509605"
       rx="25.727825"
       ry="23.92374" />
    <rect
       style="opacity:1;fill:#ffffff;fill-opacity:0.25500039;stroke:none;stroke-width:67.81233215;stroke-linecap:square;stroke-linejoin:miter;stroke-miterlimit:4;stroke-dasharray:none;stroke-dashoffset:0;stroke-opacity:1"
       id="rect819"
       width="188.68965"
       height="7.5404429"
       x="67.197639"
       y="13.325871"
       rx="6.2637477"
       ry="7.5775418" />
    <rect
       ry="7.5775418"
       rx="6.2637477"
       y="491.35162"
       x="67.197639"
       height="7.5404429"
       width="188.68965"
       id="rect935"
       style="opacity:1;fill:#ffffff;fill-opacity:0.225;stroke:none;stroke-width:67.81233215;stroke-linecap:square;stroke-linejoin:miter;stroke-miterlimit:4;stroke-dasharray:none;stroke-dashoffset:0;stroke-opacity:1" />
    <rect
       ry="23.92374"
       rx="25.727825"
       y="35.579243"
       x="8.8117571"
       height="442.23422"
       width="294.9873"
       id="rect939"
       style="opacity:1;fill:#383838;fill-opacity:1;stroke:none;stroke-width:21.33607483;stroke-linecap:square;stroke-linejoin:miter;stroke-miterlimit:4;stroke-dasharray:none;stroke-dashoffset:0;stroke-opacity:1" />
  </g>
  <path
     style="fill:#ffffff;fill-opacity:1;stroke-width:0.99999994"
     d="m 345.17188,137.19922 c -9.41929,0.7147 -13.30896,10.86305 -20.21117,15.8303 -15.30136,15.30136 -30.60271,30.60272 -45.90407,45.90407 -10.0676,-9.2444 -18.56935,-20.55682 -29.79687,-28.41992 -7.83149,-2.79319 -13.45307,4.91513 -18.36915,9.53321 -5.49262,4.52437 -7.20606,14.04365 -0.39453,18.38671 14.46961,14.69378 28.76842,29.75075 44.07618,43.48829 7.0378,3.38738 13.80196,-2.61553 17.75785,-7.91039 23.72532,-24.19636 48.49186,-47.48844 71.54293,-72.27516 3.77326,-7.27049 -2.83,-14.1939 -8.15157,-18.34216 -2.76153,-3.05523 -6.09907,-6.35595 -10.5496,-6.19495 z"
     id="path929"
     inkscape:connector-curvature="0" />
  <path
     id="path880"
     d="m 274.45639,236.97793 -42.57405,-42.57405 c -2.55776,-2.55778 -2.55776,-6.7049 0,-9.26293 l 9.26267,-9.26292 c 2.55777,-2.55802 6.70516,-2.55802 9.26293,0 l 28.67991,28.67965 61.42919,-61.42892 c 2.55776,-2.55778 6.70515,-2.55778 9.26292,0 l 9.26267,9.26293 c 2.55777,2.55776 2.55777,6.70489 0,9.26292 l -75.32332,75.32357 c -2.55802,2.55777 -6.70515,2.55777 -9.26292,-2.5e-4 z"
     inkscape:connector-curvature="0"
     style="fill:#12a600;fill-opacity:1;stroke-width:0.99999994" />
</svg>
