<?xml version="1.0" encoding="UTF-8" standalone="no"?>
<svg
   xmlns:dc="http://purl.org/dc/elements/1.1/"
   xmlns:cc="http://creativecommons.org/ns#"
   xmlns:rdf="http://www.w3.org/1999/02/22-rdf-syntax-ns#"
   xmlns:svg="http://www.w3.org/2000/svg"
   xmlns="http://www.w3.org/2000/svg"
   xmlns:xlink="http://www.w3.org/1999/xlink"
   xmlns:sodipodi="http://sodipodi.sourceforge.net/DTD/sodipodi-0.dtd"
   xmlns:inkscape="http://www.inkscape.org/namespaces/inkscape"
   width="600px"
   height="380px"
   viewBox="0 0 600 380"
   version="1.1"
   id="svg7"
   sodipodi:docname="private-browsing.svg"
   inkscape:version="0.92.5 (2060ec1f9f, 2020-04-08)">
  <metadata
     id="metadata13">
    <rdf:RDF>
      <cc:Work
         rdf:about="">
        <dc:format>image/svg+xml</dc:format>
        <dc:type
           rdf:resource="http://purl.org/dc/dcmitype/StillImage" />
      </cc:Work>
    </rdf:RDF>
  </metadata>
  <defs
     id="defs11">
    <circle
       r="50.25"
       cy="50.833"
       cx="50.833"
       id="a" />
    <linearGradient
       id="c"
       y2="28.948812"
       x2="12.284253"
       y1="28.948812"
       x1="5.5300981"
       gradientTransform="scale(1.2727833,0.78567969)"
       gradientUnits="userSpaceOnUse">
      <stop
         id="stop1078"
         offset=".56%"
         stop-color="#6176B9" />
      <stop
         id="stop1080"
         offset="69.1%"
         stop-color="#394A9F" />
    </linearGradient>
    <linearGradient
       id="d"
       y2="33.655896"
       x2="25.26145"
       y1="33.655896"
       x1="20.540734"
       gradientTransform="scale(1.6592652,0.6026764)"
       gradientUnits="userSpaceOnUse">
      <stop
         id="stop1083"
         offset=".56%"
         stop-color="#6176B9" />
      <stop
         id="stop1085"
         offset="69.1%"
         stop-color="#394A9F" />
    </linearGradient>
    <linearGradient
       gradientTransform="matrix(1,0,0,-1,-150,-530)"
       y2="-548.68799"
       x2="277.51859"
       y1="-668.00732"
       x1="277.51859"
       gradientUnits="userSpaceOnUse"
       id="SVGID_1_">
      <stop
         id="stop6"
         style="stop-color:#D14427"
         offset="0" />
      <stop
         id="stop8"
         style="stop-color:#E55225"
         offset="1" />
    </linearGradient>
    <clipPath
       id="SVGID_3_">
      <use
         height="100%"
         width="100%"
         y="0"
         x="0"
         style="overflow:visible"
         id="use26"
         overflow="visible"
         xlink:href="#SVGID_2_" />
    </clipPath>
    <linearGradient
       gradientTransform="matrix(1,0,0,-1,-150,-530)"
       y2="-590.36328"
       x2="264.0762"
       y1="-590.36328"
       x1="255.5088"
       gradientUnits="userSpaceOnUse"
       id="SVGID_4_">
      <stop
         id="stop43"
         style="stop-color:#6176B9"
         offset="0.0056" />
      <stop
         id="stop45"
         style="stop-color:#394A9F"
         offset="0.691" />
    </linearGradient>
    <linearGradient
       gradientTransform="matrix(1,0,0,-1,-150,-530)"
       y2="-587.75391"
       x2="290.26761"
       y1="-587.75391"
       x1="282.46289"
       gradientUnits="userSpaceOnUse"
       id="SVGID_5_">
      <stop
         id="stop50"
         style="stop-color:#6176B9"
         offset="0.0056" />
      <stop
         id="stop52"
         style="stop-color:#394A9F"
         offset="0.691" />
    </linearGradient>
    <path
       inkscape:connector-curvature="0"
       d="m 179.922,78.207 c 0,28.895 -23.506,52.4 -52.404,52.4 -28.893,0 -52.396,-23.508 -52.396,-52.4 0,-28.891 23.506,-52.396 52.396,-52.396 28.898,-0.001 52.404,23.505 52.404,52.396 z"
       id="SVGID_2_" />
    <linearGradient
       inkscape:collect="always"
       xlink:href="#linearGradient933"
       id="linearGradient935"
       x1="491.22028"
       y1="257.99271"
       x2="479.66699"
       y2="331"
       gradientUnits="userSpaceOnUse" />
    <linearGradient
       inkscape:collect="always"
       id="linearGradient933">
      <stop
         style="stop-color:#ffd900;stop-opacity:1"
         offset="0"
         id="stop929" />
      <stop
         style="stop-color:#fb7300;stop-opacity:0.97969544"
         offset="1"
         id="stop931" />
    </linearGradient>
    <linearGradient
       inkscape:collect="always"
       xlink:href="#linearGradient933"
       id="linearGradient943"
       x1="200.33299"
       y1="283.66699"
       x2="175.35431"
       y2="336.77872"
       gradientUnits="userSpaceOnUse" />
  </defs>
  <sodipodi:namedview
     pagecolor="#ffffff"
     bordercolor="#666666"
     borderopacity="1"
     objecttolerance="10"
     gridtolerance="10"
     guidetolerance="10"
     inkscape:pageopacity="0"
     inkscape:pageshadow="2"
     inkscape:window-width="1411"
     inkscape:window-height="695"
     id="namedview9"
     showgrid="false"
     inkscape:zoom="0.81788684"
     inkscape:cx="330.414"
     inkscape:cy="139.64724"
     inkscape:window-x="252"
     inkscape:window-y="212"
     inkscape:window-maximized="0"
     inkscape:current-layer="svg7" />
  <title
     id="title2">placeholder</title>
  <g
     id="Page-1"
     style="fill:#7fcf30;fill-opacity:1;fill-rule:evenodd;stroke:none;stroke-width:0.99839509"
     transform="matrix(1,0,0,1.0032175,0,-1.222655)">
    <g
       id="placeholder"
       style="fill:#7fcf30;fill-opacity:1;fill-rule:nonzero;stroke-width:0.99839509">
      <rect
         id="Rectangle"
         x="0"
         y="0"
         width="600"
         height="380"
         style="fill:#7fcf30;fill-opacity:1;stroke-width:0.99839509" />
    </g>
  </g>
  <g
     id="g830"
     transform="matrix(1,0,0,0.07100128,0,334.4393)"
     style="fill:#4e9a06;fill-opacity:1;fill-rule:evenodd;stroke:none;stroke-width:3.75289917">
    <g
       id="g828"
       style="fill:#4e9a06;fill-opacity:1;fill-rule:nonzero;stroke-width:8.60860729"
       transform="translate(0,244.46821)">
      <rect
         rx="0"
         height="380"
         width="600"
         y="0"
         x="0"
         id="rect826"
         style="fill:#4e9a06;fill-opacity:1;stroke-width:3.75289917"
         ry="0" />
    </g>
  </g>
  <path
     style="opacity:0.48399999;fill:#000000;fill-opacity:0.225;stroke:none;stroke-width:1px;stroke-linecap:butt;stroke-linejoin:miter;stroke-opacity:1"
     d="M 191.95509,102.90625 35.54493,203.10742 33.17578,261.68554 45.11719,351.5664 60.88868,380 h 172.34766 l -16.66406,-29.01758 z"
     id="path1083"
     inkscape:connector-curvature="0" />
  <path
     style="opacity:0.48399999;fill:#000000;fill-opacity:0.225;stroke:none;stroke-width:1px;stroke-linecap:butt;stroke-linejoin:miter;stroke-opacity:1"
     d="m 566.67578,101.89648 -156.41016,100.20117 -2.36914,58.57813 11.94336,89.88086 L 436.96875,380 600,379.99999 l -0.29727,-13.76326 -8.40976,-16.26408 z"
     id="path1081"
     inkscape:connector-curvature="0"
     sodipodi:nodetypes="ccccccccc" />
  <path
     style="opacity:0.48399999;fill:#000000;fill-opacity:0.225;stroke:none;stroke-width:1px;stroke-linecap:butt;stroke-linejoin:miter;stroke-opacity:1"
     d="m 379.66211,101.89648 -156.41015,100.20117 -2.36914,58.57813 11.94141,89.88086 L 249.15626,380 H 421.52344 L 404.2793,349.97265 Z"
     id="path832"
     inkscape:connector-curvature="0" />
  <g
     style="stroke-width:4.3057909"
     transform="matrix(0,-0.53063421,0.53063421,0,36.99609,365.95848)"
     id="g1039">
    <rect
       x="196.50655"
       y="-7.2011557"
       width="299.22693"
       height="299.22693"
       style="fill:#a05a2c;fill-opacity:0.99607999;stroke-width:4.3057909"
       id="rect1023" />
    <rect
       x="206.09"
       y="2.3828001"
       width="280.04999"
       height="280.04999"
       style="fill:#784421;fill-opacity:0.99607999;stroke-width:4.3057909"
       id="rect1025" />
    <rect
       x="220.25275"
       y="16.291395"
       width="252.10602"
       height="252.10602"
       style="fill:#ffffff;fill-opacity:0.99607999;stroke-width:4.3057909"
       id="rect1027" />
    <path
       style="fill:#b36532;fill-opacity:1;stroke-width:4.3057909"
       d="M 486.64,1.71 H 205.37 l 4.9462,4.9461 h 271.38"
       id="path916"
       inkscape:connector-curvature="0" />
    <path
       style="fill:#2b1100;fill-opacity:0.99607999;stroke-width:4.3057909"
       d="m 481.6962,6.6561 v 271.38 l 4.9461,4.9461 -0.002,-0.002 V 1.71 Z"
       id="path1029"
       inkscape:connector-curvature="0" />
    <path
       d="m 205.37,1.7121 v 281.27 h 281.27 l -4.9462,-4.9461 h -271.38 V 6.656 l -4.9461,-4.9461 z"
       style="fill:#d38d5f;fill-opacity:0.99607999;stroke-width:4.3057909"
       id="path1031"
       inkscape:connector-curvature="0" />
  </g>
  <g
     style="stroke-width:4.3057909"
     transform="matrix(0,-0.53063421,0.53063421,0,411.46299,365.95848)"
     id="g944">
    <rect
       x="196.50655"
       y="-7.2011557"
       width="299.22693"
       height="299.22693"
       style="fill:#a05a2c;fill-opacity:0.99607999;stroke-width:4.3057909"
       id="rect932" />
    <rect
       x="206.09"
       y="2.3828001"
       width="280.04999"
       height="280.04999"
       style="fill:#784421;fill-opacity:0.99607999;stroke-width:4.3057909"
       id="rect934" />
    <rect
       x="220.25275"
       y="16.291395"
       width="252.10602"
       height="252.10602"
       style="fill:#ffffff;fill-opacity:0.99607999;stroke-width:4.3057909"
       id="rect936" />
    <path
       inkscape:connector-curvature="0"
       style="fill:#b36532;fill-opacity:1;stroke-width:4.3057909"
       d="M 486.64,1.71 H 205.37 l 4.9462,4.9461 h 271.38"
       id="path938" />
    <path
       inkscape:connector-curvature="0"
       style="fill:#2b1100;fill-opacity:0.99607999;stroke-width:4.3057909"
       d="m 481.6962,6.6561 v 271.38 l 4.9461,4.9461 -0.002,-0.002 V 1.71 Z"
       id="path940" />
    <path
       d="m 205.37,1.7121 v 281.27 h 281.27 l -4.9462,-4.9461 h -271.38 V 6.656 l -4.9461,-4.9461 z"
       style="fill:#d38d5f;fill-opacity:0.99607999;stroke-width:4.3057909"
       id="path942"
       inkscape:connector-curvature="0" />
  </g>
  <g
     id="g930"
     transform="matrix(0,-0.53063421,0.53063421,0,224.84088,365.95848)"
     style="stroke-width:4.3057909">
    <rect
       id="rect918"
       style="fill:#a05a2c;fill-opacity:0.99607999;stroke-width:4.3057909"
       height="299.22693"
       width="299.22693"
       y="-7.2011557"
       x="196.50655" />
    <rect
       id="rect920"
       style="fill:#784421;fill-opacity:0.99607999;stroke-width:4.3057909"
       height="280.04999"
       width="280.04999"
       y="2.3828001"
       x="206.09" />
    <rect
       id="rect922"
       style="fill:#ffffff;fill-opacity:0.99607999;stroke-width:4.3057909"
       height="252.10602"
       width="252.10602"
       y="16.291395"
       x="220.25275" />
    <path
       id="path924"
       d="M 486.64,1.71 H 205.37 l 4.9462,4.9461 h 271.38"
       style="fill:#b36532;fill-opacity:1;stroke-width:4.3057909"
       inkscape:connector-curvature="0" />
    <path
       id="path926"
       d="m 481.6962,6.6561 v 271.38 l 4.9461,4.9461 -0.002,-0.002 V 1.71 Z"
       style="fill:#2b1100;fill-opacity:0.99607999;stroke-width:4.3057909"
       inkscape:connector-curvature="0" />
    <path
       inkscape:connector-curvature="0"
       id="path928"
       style="fill:#d38d5f;fill-opacity:0.99607999;stroke-width:4.3057909"
       d="m 205.37,1.7121 v 281.27 h 281.27 l -4.9462,-4.9461 h -271.38 V 6.656 l -4.9461,-4.9461 z" />
  </g>
  <g
     style="stroke-width:8.6818943;image-rendering:optimizeSpeed"
     id="g1075"
     transform="matrix(0.11518223,0,0,0.11518223,50.632837,122.03206)">
    <g
       id="shadow"
       style="stroke-width:8.6818943">
      <g
         id="shape"
         style="stroke-width:8.6818943">
        <path
           d="m 969.65,351.3 q -8.6,-20.85 -19.4,-40.85 C 946.2,302.9 941.9,295.4 937.35,288.05 917.8,256.35 893.95,226.4 865.8,198.25 773.65,106.1 662.35,60 532,60 401.65,60 290.4,106.1 198.25,198.25 106.1,290.4 60,401.65 60,532 60,662.35 106.1,773.65 198.25,865.8 290.4,957.95 401.65,1004 532,1004 662.35,1004 773.65,957.95 865.8,865.8 916.55,815 953.35,758.4 976.15,696.05 994.7,645.2 1004,590.55 1004,532 c 0,-44.9 -5.45,-87.55 -16.4,-127.95 -1.25,-4.55 -2.55,-9.1 -3.9,-13.6 -4.1,-13.3 -8.8,-26.35 -14.05,-39.15 z"
           id="path"
           inkscape:connector-curvature="0"
           style="fill:#000000;fill-opacity:0.09803922;stroke-width:8.6818943" />
      </g>
    </g>
    <g
       id="bg"
       style="stroke-width:8.6818943">
      <g
         id="shape2"
         style="stroke-width:8.6818943">
        <path
           d="m 969.75,394 c -1.1,-4.35 -2.35,-9 -3.65,-13.6 -2.5,-8.75 -5.35,-17.6 -8.45,-26.35 C 951.2,335.8 943.5,318 934.5,300.4 930.7,293 926.55,285.45 922.2,278 901.9,243.5 876.4,210.8 845.85,180.25 806.9,141.3 764.5,110.55 718.35,87.9 679.05,68.6 636.9,55.35 592.2,48.2 575.95,45.6 559.4,43.8 542.15,42.85 532.45,42.3 522.3,42 512.05,42 c -9.35,0 -18.6,0.25 -27.9,0.75 -6.7,0.35 -13.35,0.8 -20.05,1.45 -56.85,5.2 -109.8,19.8 -158.95,44 -45.6,22.4 -87.9,53.1 -126.85,92.05 C 89.05,269.5 43,376.75 40.2,501.75 q -0.15,6.1 -0.15,12.25 c 0,130.35 46.1,241.65 138.25,333.8 85.25,85.25 186.85,131.05 304.7,137.4 0.35,0.05 0.75,0.05 1.15,0.1 0.15,0 0.25,0 0.4,0 8.5,0.45 16.6,0.7 24.5,0.7 1.2,0 2.1,0 3,0 10.3,0 20.5,-0.3 30.1,-0.8 2.5,-0.15 4.75,-0.3 6.95,-0.45 20.2,-1.45 39.9,-4.05 58.7,-7.7 7.95,-1.55 15.8,-3.3 23.4,-5.15 80.8,-20.3 152.15,-61.6 214.65,-124.1 6.1,-6.1 12,-12.25 17.5,-18.3 39.85,-43.85 69.75,-91.6 89.85,-143.5 9.1,-23.45 16.15,-47.75 21.3,-73.05 5.2,-25.8 8.3,-52.65 9.25,-80.45 0.2,-6.05 0.3,-12.25 0.3,-18.5 0,-0.65 0,-1.35 0,-2 0,-0.35 0,-0.65 0,-1 0,-3.1 -0.05,-6.2 -0.1,-9.35 -0.85,-37.2 -5.55,-73 -14.2,-107.65 z"
           id="path1"
           inkscape:connector-curvature="0"
           style="fill:#4f3663;fill-opacity:1;stroke-width:8.6818943" />
      </g>
    </g>
    <g
       id="bg1"
       style="stroke-width:8.6818943">
      <g
         id="shape4"
         style="stroke-width:8.6818943">
        <path
           d="m 974.5,612.95 c 3.35,-16.65 5.85,-33.7 7.45,-51.3 L 589.25,168.95 558.05,199 489.375,130.325 456.05,212.05 507.525,263.525 290.5,850.05 417.8,977.35 c 21.45,4.05 43.05,6.65 65.2,7.85 0.35,0.05 0.75,0.05 1.15,0.1 0.15,0 0.25,0 0.4,0 8.5,0.45 16.6,0.7 24.5,0.7 q 1.5,0 3,0 c 10.3,0 20.5,-0.3 30.1,-0.8 2.5,-0.15 4.75,-0.3 6.95,-0.45 20.2,-1.45 39.9,-4.05 58.7,-7.7 7.95,-1.55 15.8,-3.3 23.4,-5.15 80.8,-20.3 152.15,-61.6 214.65,-124.1 6.1,-6.1 12,-12.25 17.5,-18.3 39.85,-43.85 69.75,-91.6 89.85,-143.5 9.1,-23.45 16.15,-47.75 21.3,-73.05 z"
           id="path2"
           inkscape:connector-curvature="0"
           style="fill:#000000;fill-opacity:0.2;stroke-width:8.6818943" />
      </g>
    </g>
    <g
       id="Calque.__208"
       style="stroke-width:8.6818943">
      <g
         id="shape6"
         style="stroke-width:8.6818943">
        <path
           d="m 433.05,252.05 v 13.4 c -1.7,42.05 -20,72.8 -54.85,92.2 -3.05,1.45 -6.1,3 -9.15,4.65 -26.75,14.2 -51.7,32.85 -74.8,55.95 -60.15,60.15 -90.2,132.75 -90.2,217.8 0,85.05 30.05,157.65 90.2,217.8 60.15,60.15 132.75,90.2 217.8,90.2 1.45,0 2.9,0 4.1,0 v -0.025 -64.4 0.025 c -1.35,0 -2.75,0 -4.1,0 -64.85,0 -120.2,-22.95 -166.05,-68.8 -45.85,-45.85 -68.75,-101.15 -68.75,-166 0,-64.85 22.9,-120.2 68.75,-166.05 45.85,-45.85 101.2,-68.75 166.05,-68.75 1.35,0 2.75,0 4.1,0.05 v -0.025 -144.45 0.025 c -28.7,-2.2 -56.4,-7.8 -83.1,-13.6 z"
           id="path3"
           inkscape:connector-curvature="0"
           style="fill:#fdfcdf;fill-opacity:1;stroke-width:8.6818943" />
        <path
           d="m 516.15,410.1 c -1.35,-0.05 -2.75,-0.05 -4.1,-0.05 -64.85,0 -120.2,22.9 -166.05,68.75 -45.85,45.85 -68.75,101.2 -68.75,166.05 0,64.85 22.9,120.15 68.75,166 45.85,45.85 101.2,68.8 166.05,68.8 1.35,0 2.75,0 4.1,0 v -0.025 -69.975 c -0.4,0.05 -0.8,0.05 -1.25,0.05 -0.95,0 -1.9,0 -2.85,0 -7.5,0 -14.8,-0.45 -21.9,-1.3 -5.1,-0.65 -10.1,-1.5 -15.05,-2.6 -29.15,-6.5 -54.95,-21 -77.5,-43.55 -31.6,-31.6 -47.4,-69.75 -47.4,-114.4 0,-44.75 15.8,-82.9 47.4,-114.55 22.55,-22.45 48.35,-36.95 77.5,-43.4 4.95,-1.1 9.95,-1.95 15.05,-2.6 7.1,-0.9 14.4,-1.35 21.9,-1.35 0.95,0 1.9,0 2.85,0 0.45,0 0.85,0 1.25,0.05 v -0.025 -75.9"
           id="path4"
           inkscape:connector-curvature="0"
           style="fill:#eaeace;fill-opacity:1;stroke-width:8.6818943" />
        <path
           d="m 820.05,636.05 q 0,-127.6 -90.2,-217.8 c -23.85,-23.85 -49.7,-43 -77.8,-57.55 -38.15,-17.65 -58.45,-50.5 -61,-98.65 -25.7,4.85 -50.65,5.4 -74.9,3.6 v -0.025 144.45 75.9 70.375 187.325 65.975 69.975 64.4 0.025 c 83.45,-1 154.6,-31.1 213.7,-90.2 60.15,-60.15 90.2,-132.75 90.2,-217.8 z"
           id="path5"
           inkscape:connector-curvature="0"
           style="fill:#735a93;fill-opacity:1;stroke-width:8.6818943" />
        <path
           d="m 512.05,485.95 c -7.5,0 -14.8,0.45 -21.9,1.35 -5.1,0.65 -10.1,1.5 -15.05,2.6 -29.15,6.45 -54.95,20.95 -77.5,43.4 -31.6,31.65 -47.4,69.8 -47.4,114.55 0,44.65 15.8,82.8 47.4,114.4 22.55,22.55 48.35,37.05 77.5,43.55 4.95,1.1 9.95,1.95 15.05,2.6 7.1,0.85 14.4,1.3 21.9,1.3 0.95,0 1.9,0 2.85,0 0.45,0 0.85,0 1.25,-0.05 v -65.975 0.025 c -0.55,0 -1.15,0 -1.75,0.05 -0.2,0 -0.45,0 -0.7,0 -0.55,0 -1.1,0 -1.65,0 -4.35,0 -8.55,-0.25 -12.7,-0.75 -0.15,0 -0.25,0 -0.4,-0.05 -2.85,-0.35 -5.6,-0.85 -8.3,-1.4 -6.4,-1.45 -12.5,-3.55 -18.35,-6.3 -9.6,-4.55 -18.45,-10.85 -26.55,-18.95 -18.3,-18.3 -27.45,-40.4 -27.45,-66.25 0,-25.95 9.15,-48.05 27.45,-66.35 8.1,-8.05 16.95,-14.35 26.55,-18.9 5.85,-2.75 11.95,-4.85 18.35,-6.25 2.7,-0.6 5.45,-1.1 8.3,-1.45 0.15,-0.05 0.25,-0.05 0.4,-0.05 4.15,-0.55 8.35,-0.8 12.7,-0.8 0.55,0 1.1,0 1.65,0 0.25,0 0.5,0 0.7,0.05 0.6,0 1.2,0 1.75,0.05 V 485.975 486 c -0.4,-0.05 -0.8,-0.05 -1.25,-0.05 -0.95,0 -1.9,0 -2.85,0 z"
           id="path6"
           inkscape:connector-curvature="0"
           style="fill:#d1d1b8;fill-opacity:1;stroke-width:8.6818943" />
        <path
           d="m 512.05,556.25 c -4.35,0 -8.55,0.25 -12.7,0.8 -0.15,0 -0.25,0 -0.4,0.05 -2.85,0.35 -5.6,0.85 -8.3,1.45 -6.4,1.4 -12.5,3.5 -18.35,6.25 -9.6,4.55 -18.45,10.85 -26.55,18.9 -18.3,18.3 -27.45,40.4 -27.45,66.35 0,25.85 9.15,47.95 27.45,66.25 8.1,8.1 16.95,14.4 26.55,18.95 5.85,2.75 11.95,4.85 18.35,6.3 2.7,0.55 5.45,1.05 8.3,1.4 0.15,0.05 0.25,0.05 0.4,0.05 4.15,0.5 8.35,0.75 12.7,0.75 0.55,0 1.1,0 1.65,0 0.25,0 0.5,0 0.7,0 0.6,-0.05 1.2,-0.05 1.75,-0.05 V 743.675 556.35 c -0.55,-0.05 -1.15,-0.05 -1.75,-0.05 -0.2,-0.05 -0.45,-0.05 -0.7,-0.05 -0.55,0 -1.1,0 -1.65,0 z"
           id="path7"
           inkscape:connector-curvature="0"
           style="fill:#bfbfa9;fill-opacity:1;stroke-width:8.6818943" />
      </g>
    </g>
    <g
       id="Calque.__209"
       style="stroke-width:8.6818943">
      <g
         id="shape13"
         style="stroke-width:8.6818943">
        <path
           d="m 443.4,84.35 c -0.35,1.3 -0.7,2.6 -0.95,3.7 q -31,121.85 65.15,161.7 c 18.75,-62.25 -0.95,-116 -59.35,-161.7 -1.4,-1.1 -3.1,-2.4 -4.85,-3.7 z"
           id="path8"
           inkscape:connector-curvature="0"
           style="fill:#78af52;fill-opacity:1;stroke-width:8.6818943" />
        <path
           d="m 524.35,249.75 c -5.45,-40.8 16.25,-67.9 64.9,-80.8 -5.3,44.9 -26.9,71.8 -64.9,80.8"
           id="path9"
           inkscape:connector-curvature="0"
           style="fill:#78af52;fill-opacity:1;stroke-width:8.6818943" />
      </g>
    </g>
  </g>
  <g
     id="g1129"
     style="fill:none;fill-rule:evenodd"
     transform="translate(598.78963,425.80835)">
    <g
       transform="matrix(0.9180246,0,0,0.9180246,-228.01174,-317.02781)"
       id="g906"
       style="stroke-width:1.08929539">
      <ellipse
         ry="59.859772"
         rx="56.555824"
         cy="77.17086"
         cx="136.62799"
         transform="matrix(1,0,0,0.97402597,-9.3287956,2.7818376)"
         id="path3038"
         style="fill:#ffffff;fill-opacity:1;fill-rule:nonzero;stroke:none;stroke-width:1.08929539" />
      <g
         id="g3"
         style="stroke-width:1.08929539">
        <linearGradient
           gradientTransform="matrix(1,0,0,-1,-150,-530)"
           y2="-548.68799"
           x2="277.51859"
           y1="-668.00732"
           x1="277.51859"
           gradientUnits="userSpaceOnUse"
           id="linearGradient932">
          <stop
             id="stop928"
             style="stop-color:#D14427"
             offset="0" />
          <stop
             id="stop930"
             style="stop-color:#E55225"
             offset="1" />
        </linearGradient>
        <path
           style="fill:url(#SVGID_1_);stroke-width:1.08929539"
           inkscape:connector-curvature="0"
           id="path10"
           d="m 179.717,78.348 c 0,28.828 -23.369,52.201 -52.199,52.201 -28.83,0 -52.199,-23.373 -52.199,-52.201 0,-28.828 23.369,-52.199 52.199,-52.199 28.83,0 52.199,23.371 52.199,52.199 z m 7.461,0 c 0,32.947 -26.713,59.66 -59.66,59.66 -32.947,0 -59.66,-26.713 -59.66,-59.66 0,-32.947 26.713,-59.66 59.66,-59.66 32.947,0 59.66,26.712 59.66,59.66 z m -4.922,0 c 0,-30.229 -24.51,-54.736 -54.738,-54.736 -30.227,0 -54.738,24.508 -54.738,54.736 0,30.228 24.512,54.736 54.738,54.736 30.228,0 54.738,-24.508 54.738,-54.736 z" />
        <g
           id="g12"
           style="stroke-width:1.08929539">
          <g
             id="g14"
             style="stroke-width:1.08929539">
            <g
               id="g16"
               style="stroke-width:1.08929539">
              <g
                 id="g18"
                 style="stroke-width:1.08929539">
                <g
                   id="g20"
                   style="stroke-width:1.08929539">
                  <defs
                     id="defs22">
                    <path
                       inkscape:connector-curvature="0"
                       d="m 179.922,78.207 c 0,28.895 -23.506,52.4 -52.404,52.4 -28.893,0 -52.396,-23.508 -52.396,-52.4 0,-28.891 23.506,-52.396 52.396,-52.396 28.898,-0.001 52.404,23.505 52.404,52.396 z"
                       id="path1235" />
                  </defs>
                  <clipPath
                     id="clipPath939">
                    <use
                       height="100%"
                       width="100%"
                       y="0"
                       x="0"
                       style="overflow:visible"
                       id="use937"
                       overflow="visible"
                       xlink:href="#SVGID_2_" />
                  </clipPath>
                  <g
                     id="g28"
                     clip-path="url(#SVGID_3_)"
                     style="stroke-width:1.08929539">
                    <path
                       style="fill:#d5d7d8;stroke-width:1.08929539"
                       inkscape:connector-curvature="0"
                       id="path30"
                       d="m 148.482,154.541 c -1.801,-8.285 -12.262,-27.039 -16.229,-34.969 -3.965,-7.93 -7.939,-19.11 -6.129,-26.322 0.327,-1.312 -3.436,-11.307 -2.354,-12.014 8.415,-5.49 10.633,0.598 14.002,-1.863 1.738,-1.273 4.09,1.047 4.693,-1.059 2.158,-7.568 -3.006,-20.76 -8.768,-26.527 -1.885,-1.879 -4.773,-3.059 -8.031,-3.686 -1.254,-1.713 -3.275,-3.361 -6.138,-4.879 -3.188,-1.697 -10.121,-3.938 -13.717,-4.535 -2.492,-0.41 -3.055,0.287 -4.119,0.461 0.992,0.088 5.699,2.414 6.615,2.549 -0.916,0.619 -3.607,-0.029 -5.324,0.742 -0.865,0.391 -1.512,1.877 -1.506,2.58 4.91,-0.496 12.574,-0.016 17.1,2 -3.602,0.41 -9.08,0.867 -11.436,2.105 -6.848,3.609 -9.873,12.035 -8.07,22.133 1.804,10.075 9.738,46.849 12.262,59.129 2.525,12.263 -5.408,20.189 -10.455,22.354 l 5.408,0.363 -1.801,3.967 c 6.484,0.719 13.695,-1.441 13.695,-1.441 -1.438,3.965 -11.176,5.412 -11.176,5.412 0,0 4.691,1.438 12.258,-1.447 7.575,-2.883 12.261,-4.688 12.261,-4.688 l 3.605,9.373 6.854,-6.846 2.884,7.211 c 0.009,-0.001 5.419,-1.808 3.616,-10.103 z" />
                    <path
                       style="fill:#ffffff;stroke-width:1.08929539"
                       inkscape:connector-curvature="0"
                       id="path32"
                       d="m 150.66,152.859 c -1.795,-8.289 -12.256,-27.043 -16.227,-34.975 -3.968,-7.935 -7.933,-19.112 -6.129,-26.321 0.334,-1.309 0.34,-6.668 1.428,-7.379 8.41,-5.494 7.813,-0.184 11.186,-2.645 1.74,-1.27 3.133,-2.805 3.738,-4.912 2.164,-7.572 -3.006,-20.76 -8.773,-26.529 -1.879,-1.879 -4.768,-3.062 -8.025,-3.686 -1.252,-1.717 -3.271,-3.361 -6.132,-4.881 -5.391,-2.863 -12.074,-4.006 -18.266,-2.883 0.99,0.09 3.256,2.137 4.168,2.273 -1.381,0.936 -5.053,0.816 -5.029,2.896 4.916,-0.492 10.303,0.285 14.834,2.297 -3.602,0.41 -6.955,1.299 -9.311,2.543 -6.854,3.602 -8.656,10.812 -6.854,20.914 1.807,10.096 9.742,46.869 12.256,59.127 2.527,12.258 -5.402,20.188 -10.449,22.352 l 5.408,0.359 -1.801,3.973 c 6.484,0.717 13.695,-1.443 13.695,-1.443 -1.438,3.972 -11.176,5.406 -11.176,5.406 0,0 4.686,1.443 12.258,-1.445 7.578,-2.883 12.267,-4.684 12.267,-4.684 l 3.602,9.373 6.854,-6.85 2.889,7.211 c -0.007,0.005 5.398,-1.8 3.589,-10.091 z" />
                    <path
                       style="fill:#2d4f8e;stroke-width:1.08929539"
                       inkscape:connector-curvature="0"
                       id="path34"
                       d="m 109.211,70.074 c 0,-2.092 1.693,-3.787 3.789,-3.787 2.09,0 3.785,1.695 3.785,3.787 0,2.094 -1.695,3.787 -3.785,3.787 -2.096,0 -3.789,-1.693 -3.789,-3.787 z" />
                    <path
                       style="fill:#ffffff;stroke-width:1.08929539"
                       inkscape:connector-curvature="0"
                       id="path36"
                       d="m 113.697,68.812 c 0,-0.545 0.441,-0.984 0.98,-0.984 0.543,0 0.984,0.439 0.984,0.984 0,0.543 -0.441,0.984 -0.984,0.984 -0.538,10e-4 -0.98,-0.441 -0.98,-0.984 z" />
                    <path
                       style="fill:#2d4f8e;stroke-width:1.08929539"
                       inkscape:connector-curvature="0"
                       id="path38"
                       d="m 135.057,67.828 c 0,-1.793 1.461,-3.25 3.252,-3.25 1.801,0 3.256,1.457 3.256,3.25 0,1.801 -1.455,3.258 -3.256,3.258 -1.791,0 -3.252,-1.457 -3.252,-3.258 z" />
                    <path
                       style="fill:#ffffff;stroke-width:1.08929539"
                       inkscape:connector-curvature="0"
                       id="path40"
                       d="m 138.914,66.746 c 0,-0.463 0.379,-0.842 0.838,-0.842 0.477,0 0.844,0.379 0.844,0.842 0,0.469 -0.367,0.842 -0.844,0.842 -0.459,0 -0.838,-0.373 -0.838,-0.842 z" />
                    <linearGradient
                       gradientTransform="matrix(1,0,0,-1,-150,-530)"
                       y2="-590.36328"
                       x2="264.0762"
                       y1="-590.36328"
                       x1="255.5088"
                       gradientUnits="userSpaceOnUse"
                       id="linearGradient951">
                      <stop
                         id="stop947"
                         style="stop-color:#6176B9"
                         offset="0.0056" />
                      <stop
                         id="stop949"
                         style="stop-color:#394A9F"
                         offset="0.691" />
                    </linearGradient>
                    <path
                       style="fill:url(#SVGID_4_);stroke-width:1.08929539"
                       inkscape:connector-curvature="0"
                       id="path47"
                       d="m 114.076,59.101 c 0,0 -2.854,-1.291 -5.629,0.453 -2.77,1.742 -2.668,3.523 -2.668,3.523 0,0 -1.473,-3.283 2.453,-4.891 3.93,-1.61 5.844,0.915 5.844,0.915 z" />
                    <linearGradient
                       gradientTransform="matrix(1,0,0,-1,-150,-530)"
                       y2="-587.75391"
                       x2="290.26761"
                       y1="-587.75391"
                       x1="282.46289"
                       gradientUnits="userSpaceOnUse"
                       id="linearGradient958">
                      <stop
                         id="stop954"
                         style="stop-color:#6176B9"
                         offset="0.0056" />
                      <stop
                         id="stop956"
                         style="stop-color:#394A9F"
                         offset="0.691" />
                    </linearGradient>
                    <path
                       style="fill:url(#SVGID_5_);stroke-width:1.08929539"
                       inkscape:connector-curvature="0"
                       id="path54"
                       d="m 140.268,58.841 c 0,0 -2.051,-1.172 -3.643,-1.152 -3.268,0.043 -4.162,1.488 -4.162,1.488 0,0 0.549,-3.445 4.734,-2.754 2.266,0.377 3.071,2.418 3.071,2.418 z" />
                  </g>
                </g>
              </g>
            </g>
          </g>
          <path
             style="fill:#fdd20a;stroke-width:1.08929539"
             inkscape:connector-curvature="0"
             id="path56"
             d="m 124.59,84.678 c 0.379,-2.291 6.299,-6.625 10.49,-6.887 4.201,-0.264 5.51,-0.205 9.01,-1.043 3.508,-0.838 12.535,-3.088 15.033,-4.242 2.504,-1.156 13.102,0.572 5.631,4.738 -3.234,1.809 -11.945,5.131 -18.172,6.988 -6.219,1.861 -9.99,-1.777 -12.059,1.281 -1.646,2.432 -0.334,5.762 7.098,6.453 10.037,0.93 19.66,-4.52 20.719,-1.625 1.064,2.895 -8.625,6.508 -14.527,6.623 -5.891,0.111 -17.776,-3.896 -19.553,-5.137 -1.785,-1.239 -4.164,-4.13 -3.67,-7.149 z" />
        </g>
      </g>
      <g
         id="g100"
         style="stroke-width:1.08929539">
        <path
           style="fill:#65bc46;stroke-width:1.08929539"
           inkscape:connector-curvature="0"
           id="path102"
           d="m 129.133,115.975 c 0,0 -14.1,-7.521 -14.33,-4.47 -0.238,3.056 0,15.509 1.643,16.451 1.646,0.938 13.395,-6.108 13.395,-6.108 z" />
        <path
           style="fill:#65bc46;stroke-width:1.08929539"
           inkscape:connector-curvature="0"
           id="path104"
           d="m 134.535,115.501 c 0,0 9.635,-7.285 11.754,-6.815 2.111,0.478 2.582,15.51 0.701,16.224 -1.881,0.696 -12.908,-3.816 -12.908,-3.816 z" />
        <path
           style="fill:#43a244;stroke-width:1.08929539"
           inkscape:connector-curvature="0"
           id="path106"
           d="m 125.719,116.771 c 0,4.931 -0.709,7.049 1.41,7.517 2.112,0.473 6.105,0 7.518,-0.938 1.41,-0.94 0.232,-7.281 -0.235,-8.465 -0.474,-1.171 -8.693,-0.228 -8.693,1.886 z" />
        <path
           style="fill:#65bc46;stroke-width:1.08929539"
           inkscape:connector-curvature="0"
           id="path108"
           d="m 126.615,115.675 c 0,4.933 -0.707,7.05 1.41,7.519 2.109,0.474 6.104,0 7.518,-0.938 1.41,-0.941 0.232,-7.279 -0.238,-8.466 -0.471,-1.172 -8.69,-0.228 -8.69,1.885 z" />
      </g>
      <path
         style="fill:#ffffff;stroke-width:1.08929539"
         inkscape:connector-curvature="0"
         id="path110"
         d="m 140.029,128.698 c -4.133,1.052 -8.46,1.613 -12.916,1.613 -4.715,0 -9.282,-0.637 -13.631,-1.811 l 0.05,0.413 c 4.334,1.165 8.884,1.796 13.581,1.796 4.511,0 8.89,-0.573 13.068,-1.649 z" />
    </g>
  </g>
  <g
     transform="matrix(3.3182684,0,0,3.3182684,241.70488,124.4806)"
     id="g856"
     style="stroke-width:1.13900602">
    <path
       sodipodi:nodetypes="csccssscssscc"
       inkscape:connector-curvature="0"
       id="path5137"
       d="M 15.617988,295.66418 C 9.9401302,292.50672 5.6959906,287.52131 4.7342129,282.87951 4.4622971,281.56718 4.4516145,281.24899 4.4519256,274.47112 l 2.394e-4,-6.47461 0.5616386,-0.36177 c 2.3734615,-1.52883 4.8841786,-2.55103 7.4419094,-3.06699 5.221864,-1.05337 10.639669,0.003 15.485448,3.16684 l 0.398232,0.25998 v 6.50684 c 0,6.8044 -0.01093,7.13134 -0.280843,8.43104 -0.956329,4.6043 -4.632206,9.09553 -10.057782,12.28874 -1.576255,0.9277 -1.527525,0.91863 -2.382844,0.44299 z"
       style="fill:#59b000;fill-opacity:1;stroke-width:0.30136201"
       transform="translate(0,-263.13332)" />
    <path
       id="path887"
       d="m 16.396917,264.17336 c -1.317958,-4.7e-4 -2.635612,0.13103 -3.941076,0.39437 -2.5577318,0.51596 -5.068528,1.53812 -7.4419895,3.06696 l -0.5615828,0.36177 -4.707e-4,6.47466 c -2.394e-4,6.77787 0.010371,7.096 0.2822554,8.40832 0.9617776,4.64181 5.2059168,9.62724 10.8837756,12.7847 h 1.19e-4 c 0.368953,0.20517 0.569745,0.32326 0.805249,0.31706 v -31.80747 c -0.0088,-2e-5 -0.01755,-4.8e-4 -0.02641,-4.8e-4 z"
       style="fill:#000000;fill-opacity:0.2639594;stroke-width:0.30136201"
       inkscape:connector-curvature="0"
       transform="translate(0,-263.13332)" />
    <path
       inkscape:connector-curvature="0"
       id="path914"
       d="m 16.170587,270.66055 -1.418519,0.70952 -2.349727,0.48731 -1.196825,1.41851 -0.709517,0.0889 -1.9947111,1.41852 0.1328102,1.8619 -0.930693,0.62063 0.2661338,-1.90634 -7.89099181,3.50211 4.56612931,-0.17725 -0.4433837,1.37408 5.3195724,0.0444 1.9606039,4.19612 0.566372,1.21233 0.459404,8.13336 c 0.975082,0.72944 2.012691,1.40948 3.10782,2.01848 0.855319,0.47564 0.806545,0.48483 2.3828,-0.44287 0.728742,-0.4289 1.421419,-0.88364 2.084629,-1.35651 l -0.0553,-7.64346 1.881539,-1.92133 2.329574,-2.37866 v -2.2164 h 5.541264 l -1.374076,-2.34973 5.496822,0.48782 -1.905828,-4.83174 -7.758182,1.0635 1.197343,1.99522 -1.551842,-0.0444 -0.13281,-0.57619 -0.532268,-0.0889 v -3.10317 l -1.773018,-1.06402 -1.285708,0.0444 -0.620636,0.39894 -0.620633,-0.97513 z"
       style="fill:#000000;fill-opacity:1;stroke-width:0.30136201"
       transform="translate(0,-263.13332)" />
    <polygon
       points="454.333,297 439,266.333 523.667,261.667 539.667,297.667 463,294.333 479.667,331 417,330.333 413.667,297.667 "
       id="polygon239"
       style="fill:url(#linearGradient935);fill-opacity:1;stroke-width:1.13900602"
       transform="matrix(0.06649538,0,0,0.06649538,-3.4838166,-6.2180115)" />
    <polygon
       points="103.667,317 153,297 153.667,320.333 189,307.667 210.333,323.667 205.667,338.333 133,338.333 137,316.333 "
       id="polygon241"
       style="fill:url(#linearGradient943);fill-opacity:1;stroke-width:1.13900602"
       transform="matrix(0.06649538,0,0,0.06649538,-3.4838166,-6.2180115)" />
    <path
       sodipodi:nodetypes="ccccccccscccsccccccccccccccscccc"
       d="m 17.772556,14.816667 0.398973,2.216491 c 0,0 0.531962,0.265981 1.684526,-0.22163 1.152565,-0.487609 1.595889,-0.620601 1.595889,-0.620601 0,0 0.04436,0.26598 -0.48761,0.620601 -0.531964,0.35462 -1.551603,0.531962 -1.551603,0.531962 0,0 0.443324,0.354687 1.108278,0.08871 0.664953,-0.265982 0.886583,-0.398973 0.886583,-0.398973 0,0 0,0.797944 -0.531964,0.930936 -0.531962,0.132991 -1.86187,-0.177344 -2.526824,-0.132993 -0.664953,0.04436 -0.97522,0.620601 -1.019574,1.063926 -0.04436,0.443324 0.265982,1.728879 0.265982,1.728879 0,0 -0.709305,-0.930935 -0.709305,-1.595889 0,-0.664953 0.132993,-1.108278 0.132993,-1.108278 l -1.108281,-0.132992 -0.487609,-0.753592 -2.249737,0.121885 c 0,0 -0.01115,1.784337 0.831191,2.848197 0.842299,1.063859 1.773233,1.817518 1.773233,1.817518 l 0.6455,11.027056 0.267785,-0.05505 0.260633,-0.117311 0.710945,-0.386379 1.768037,-1.095701 -0.283851,-8.485973 -2.172138,-0.709305 c 0,0 1.773234,0.177343 2.659815,-0.221631 0.886583,-0.398971 3.103139,-2.393832 3.457759,-3.058785 0.35462,-0.664953 -0.08871,-5.496971 -0.08871,-5.496971 0,0 -1.462897,0.664952 -2.925796,1.108278 -1.462898,0.443324 -2.305129,0.48761 -2.305129,0.48761 z"
       id="path243"
       style="fill:#c4a43f;stroke-width:0.07573862"
       inkscape:connector-curvature="0" />
    <path
       d="m 19.723064,9.0980656 c 0,0 0.709306,-0.4433239 1.595888,-0.1773442 0.886584,0.2659831 1.152565,0.4433254 1.152565,0.4433254 v 2.9257972 c 0,0 -0.398971,0.265979 -1.063925,0.576316 -0.664955,0.310332 -1.108214,0.310332 -1.108214,0.310332 0,0 -0.132991,-2.039147 -0.310331,-2.881444 C 19.811701,9.4527521 19.723064,9.0980656 19.723064,9.0980656 Z"
       id="path245"
       style="fill:#c4a43f;stroke-width:0.07573862"
       inkscape:connector-curvature="0" />
    <path
       d="m 16.531286,8.0784922 h 1.684528 c 0,0 0.709373,0.7979442 0.88665,1.7288796 0.177275,0.9309352 0.265981,3.7680932 0.265981,3.7680932 0,0 -0.576248,0.221694 -1.329908,0.310334 -0.753659,0.08864 -1.019638,0.04428 -1.019638,0.04428 0,0 -0.177346,-3.058786 -0.310335,-4.0783602 C 16.575572,8.8321434 16.531286,8.0784851 16.531286,8.0784851 Z"
       id="path247"
       style="fill:#c4a43f;stroke-width:0.07573862"
       inkscape:connector-curvature="0" />
    <path
       d="m 13.206519,9.2754088 1.462898,-0.4433243 c 0,0 1.019573,0.6649534 1.196917,1.9062225 0.177342,1.24127 0.08864,3.147425 0.08864,3.147425 l -2.039213,0.35462 c 0,0 -0.177344,-2.925795 -0.398974,-3.768094 -0.22163,-0.8422962 -0.310269,-1.1968492 -0.310268,-1.1968492 z"
       id="path249"
       style="fill:#c4a43f;stroke-width:0.07573862"
       inkscape:connector-curvature="0" />
    <path
       d="m 10.10338,11.669242 c 0,0 0.310332,-0.620601 0.930935,-0.664953 0.620601,-0.04437 0.975287,0.08864 0.975287,0.08864 l 0.797946,3.103139 c 0,0 -0.08864,0.177343 -0.664955,0.398973 -0.576315,0.22163 -0.930936,0.177343 -0.930936,0.177343 0,0 -0.576314,-1.418545 -0.753591,-1.994861 -0.177277,-0.576317 -0.354684,-1.10828 -0.354686,-1.108279 z"
       id="path251"
       style="fill:#c4a43f;stroke-width:0.07573862"
       inkscape:connector-curvature="0" />
    <path
       d="m 11.477638,10.560964 1.019575,-1.0639261 c 0,0 0.531963,0.4876099 0.620602,1.0639261 0.08864,0.576315 0.04436,2.837158 0.04436,2.837158 0,0 -0.487611,-2.526823 -0.797944,-2.659815 -0.310329,-0.132993 -0.886578,-0.177343 -0.886578,-0.177343 z"
       id="path253"
       style="fill:#796621;stroke-width:0.07573862"
       inkscape:connector-curvature="0" />
    <polygon
       points="210.333,310.333 200.333,283.667 198.333,267 189,275.667 189.667,295 "
       id="polygon255"
       style="fill:#796621;stroke-width:1.13900602"
       transform="matrix(0.06649538,0,0,0.06649538,-3.4838166,-6.2180115)" />
    <polygon
       points="293.667,217.667 282.333,222.333 295,242.333 "
       id="polygon257"
       style="fill:#796621;stroke-width:1.13900602"
       transform="matrix(0.06649538,0,0,0.06649538,-3.4838166,-6.2180115)" />
    <polygon
       points="289,321 310.333,319 317,353 297,353 "
       id="polygon259"
       style="fill:#796621;stroke-width:1.13900602"
       transform="matrix(0.06649538,0,0,0.06649538,-3.4838166,-6.2180115)" />
    <polygon
       points="279,338.333 277.667,317 281.667,313 259.667,317 255,340.333 "
       id="polygon261"
       style="fill:#796621;stroke-width:1.13900602"
       transform="matrix(0.06649538,0,0,0.06649538,-3.4838166,-6.2180115)" />
    <path
       d="m 12.896186,14.905373 c 0,0 -0.310336,0.26598 -0.842297,0.310332 -0.531965,0.04437 -0.753593,0.04428 -0.753593,0.04428 l -0.132993,1.063925 1.418546,0.08864 z"
       id="path263"
       style="fill:#796621;stroke-width:0.07573862"
       inkscape:connector-curvature="0" />
    <path
       sodipodi:nodetypes="ccccccccccccccccccc"
       d="m 10.679694,17.121862 1.728881,-0.0665 -0.08864,0.731449 -0.487612,0.132993 0.620602,0.132993 c 0,0 0.05539,0.243837 0.182863,0.587352 0.01962,0.05293 -0.326957,0.277086 -0.326957,0.277086 0,0 0.428097,-0.02168 0.448177,0.02473 0.122088,0.281209 0.2846,0.594336 0.493796,0.88399 0.576314,0.797944 1.817516,2.172205 1.817516,2.172205 l -0.797877,0.177342 0.842296,0.265982 0.63607,10.165896 -1.278204,-0.752101 -1.299574,-0.86208 -0.363492,-8.285737 0.620602,-0.354618 -0.753593,-0.265983 z"
       id="path265"
       style="fill:#796621;stroke-width:0.07573862"
       inkscape:connector-curvature="0" />
  </g>
</svg>
