<?xml version="1.0" encoding="UTF-8" standalone="no"?>
<svg xmlns:dc="http://purl.org/dc/elements/1.1/" xmlns:cc="http://creativecommons.org/ns#" xmlns:rdf="http://www.w3.org/1999/02/22-rdf-syntax-ns#" xmlns:svg="http://www.w3.org/2000/svg" xmlns="http://www.w3.org/2000/svg" xmlns:sodipodi="http://sodipodi.sourceforge.net/DTD/sodipodi-0.dtd" xmlns:inkscape="http://www.inkscape.org/namespaces/inkscape" height="24" viewBox="0 0 24 24" width="24" version="1.1" id="svg6" sodipodi:docname="logo.svg" inkscape:version="1.0.1 (3bc2e813f5, 2020-09-07)">
  <metadata id="metadata12">
    <rdf:RDF>
      <cc:Work rdf:about="">
        <dc:format>image/svg+xml</dc:format>
        <dc:type rdf:resource="http://purl.org/dc/dcmitype/StillImage"/>
      </cc:Work>
    </rdf:RDF>
  </metadata>
  <defs id="defs10"/>
  <sodipodi:namedview pagecolor="#ffffff" bordercolor="#666666" borderopacity="1" objecttolerance="10" gridtolerance="10" guidetolerance="10" inkscape:pageopacity="0" inkscape:pageshadow="2" inkscape:window-width="1920" inkscape:window-height="958" id="namedview8" showgrid="false" inkscape:zoom="13.007819" inkscape:cx="5.8124438" inkscape:cy="13.766157" inkscape:window-x="1920" inkscape:window-y="96" inkscape:window-maximized="0" inkscape:current-layer="svg6"/>
  <rect style="fill:#2198c9;fill-opacity:1;stroke:none;stroke-width:0.00490639" id="rect1478" width="24" height="24" x="0" y="0"/>
  <path d="M0 0h24v24H0z" fill="none" id="path2"/>
  <path d="m 15.333333,12.000001 c 0,-1.047619 -0.857143,-1.904763 -1.904762,-1.904763 -1.047619,0 -1.904761,0.857144 -1.904761,1.904763 0,1.047619 0.857142,1.904761 1.904761,1.904761 1.047619,0 1.904762,-0.857142 1.904762,-1.904761 z M 13.428571,3.4285715 c -4.7333329,0 -8.5714281,3.8380952 -8.5714281,8.5714295 H 2 l 3.8095238,3.809523 3.8095238,-3.809523 H 6.7619048 c 0,-3.6857152 2.9809523,-6.6666676 6.6666662,-6.6666676 3.685715,0 6.666667,2.9809524 6.666667,6.6666676 0,3.685714 -2.980952,6.666666 -6.666667,6.666666 -1.438095,0 -2.771428,-0.466666 -3.8666662,-1.238096 L 8.2095238,18.8 c 1.4476191,1.104761 3.2571432,1.771428 5.2190472,1.771428 C 18.161905,20.571428 22,16.733333 22,12.000001 22,7.2666667 18.161905,3.4285715 13.428571,3.4285715 Z" id="path4" style="fill:#ffffff;fill-opacity:1;stroke:none;stroke-width:0.952381"/>
</svg>