<svg xmlns="http://www.w3.org/2000/svg" width="1066.667" height="356" viewBox="0 0 1000 333.75"><g transform="translate(54.286 328.799)"><ellipse style="opacity:1;fill:#fff;fill-opacity:0;fill-rule:evenodd;stroke:#000;stroke-width:15;stroke-linecap:butt;stroke-linejoin:miter;stroke-miterlimit:4;stroke-dasharray:none;stroke-dashoffset:0;stroke-opacity:1" cx="113.134" cy="-162.844" rx="144.773" ry="144.397"/><ellipse ry="144.397" rx="144.773" cy="-162.844" cx="445.134" style="opacity:1;fill:#fff;fill-opacity:0;fill-rule:evenodd;stroke:#000;stroke-width:15;stroke-linecap:butt;stroke-linejoin:miter;stroke-miterlimit:4;stroke-dasharray:none;stroke-dashoffset:0;stroke-opacity:1"/><ellipse style="opacity:1;fill:#fff;fill-opacity:0;fill-rule:evenodd;stroke:#000;stroke-width:15;stroke-linecap:butt;stroke-linejoin:miter;stroke-miterlimit:4;stroke-dasharray:none;stroke-dashoffset:0;stroke-opacity:1" cx="779.134" cy="-162.844" rx="144.773" ry="144.397"/><path style="fill:#000003;fill-rule:evenodd;stroke:#000;stroke-width:1px;stroke-linecap:butt;stroke-linejoin:miter;stroke-opacity:1;fill-opacity:1" d="m419.755-55.244.354-80.268-18.412-.244-.022-70.73c.127-4.054 2.12-7.725 7.745-7.391l72.987-.532c4.844.923 9.214 2.463 8.83 10.18l-.353 69.779-19.21.199v79.76z"/><ellipse style="opacity:1;fill:#000003;fill-opacity:1;fill-rule:evenodd;stroke:#000;stroke-width:15;stroke-linecap:butt;stroke-linejoin:miter;stroke-miterlimit:4;stroke-dasharray:none;stroke-dashoffset:0;stroke-opacity:1" cx="445.216" cy="-248.435" rx="21.016" ry="20.319"/><path style="opacity:1;fill:none;fill-opacity:1;fill-rule:evenodd;stroke:#000;stroke-width:31.39999962;stroke-linecap:butt;stroke-linejoin:miter;stroke-miterlimit:4;stroke-dasharray:none;stroke-dashoffset:0;stroke-opacity:1" d="M722.237-182.458a63.798 72.888 0 0 1 71.782-49.532 63.798 72.888 0 0 1 52.721 74.505 63.798 72.888 0 0 1-57.43 69.815 63.798 72.888 0 0 1-68.355-55.501"/><text xml:space="preserve" style="font-style:normal;font-weight:400;font-size:5px;line-height:125%;font-family:sans-serif;letter-spacing:0;word-spacing:0;fill:#000;fill-opacity:1;stroke:none;stroke-width:1px;stroke-linecap:butt;stroke-linejoin:miter;stroke-opacity:1" x="16.017" y="-118.079"><tspan x="16.017" y="-118.079" style="font-style:normal;font-variant:normal;font-weight:700;font-stretch:normal;font-size:125px;font-family:sans-serif;-inkscape-font-specification:'sans-serif Bold'">CC</tspan></text><path style="fill:#000;fill-opacity:1;fill-rule:evenodd;stroke:#000;stroke-width:1px;stroke-linecap:butt;stroke-linejoin:miter;stroke-opacity:1" d="m713.328-165.57-17.718-35.056 57.718 19.441z"/></g></svg>