<svg viewBox="0 0 114.86 114.86" xmlns="http://www.w3.org/2000/svg"><path d="M112.694 52.316L62.545 2.17a7.397 7.397 0 00-10.461 0L41.67 12.583l13.21 13.21c3.07-1.036 6.59-.34 9.037 2.106a8.788 8.788 0 012.087 9.094l12.732 12.73c3.082-1.062 6.634-.376 9.095 2.089a8.8 8.8 0 010 12.447 8.802 8.802 0 01-14.365-9.573L61.59 42.812v31.246a8.863 8.863 0 012.327 1.664c3.438 3.437 3.438 9.007 0 12.45-3.437 3.436-9.011 3.436-12.446 0-3.438-3.443-3.438-9.013 0-12.45a8.79 8.79 0 012.883-1.92V42.267a8.724 8.724 0 01-2.883-1.921c-2.604-2.603-3.23-6.425-1.895-9.622L36.555 17.699 2.167 52.082a7.402 7.402 0 000 10.464l50.151 50.148a7.399 7.399 0 0010.462 0l49.915-49.915a7.399 7.399 0 000-10.464" fill="#100f0d"/></svg>