<svg xmlns="http://www.w3.org/2000/svg" viewBox="0 0 32 32"><path d="M21.447 17.626A1.626 1.626 0 1119.821 16a1.628 1.628 0 011.626 1.626zm-7.154 0a1.626 1.626 0 10-1.626 1.626 1.628 1.628 0 001.626-1.626zm5.22 3.7a5.117 5.117 0 01-3.267.949 5.111 5.111 0 01-3.265-.948.421.421 0 00-.596.596 5.994 5.994 0 003.86 1.194 6 6 0 003.863-1.194.421.421 0 10-.596-.596zM30.634 5.025v21.952a3.659 3.659 0 01-3.659 3.659H5.024a3.659 3.659 0 01-3.659-3.659V5.024a3.659 3.659 0 013.659-3.659h21.952a3.659 3.659 0 013.659 3.659zM26.648 16a2.275 2.275 0 00-3.855-1.638 11.144 11.144 0 00-6.088-1.931l1.037-4.88 3.388.721a1.628 1.628 0 10.166-.796l-3.783-.804a.407.407 0 00-.482.313l-1.158 5.444a11.18 11.18 0 00-6.177 1.93 2.275 2.275 0 10-2.506 3.717 4.486 4.486 0 00-.055.688c0 3.503 4.077 6.342 9.106 6.342 5.03 0 9.106-2.84 9.106-6.342a4.485 4.485 0 00-.053-.684A2.276 2.276 0 0026.648 16z" fill="#262626"/></svg>