<svg xmlns="http://www.w3.org/2000/svg" viewBox="0 0 60 60" version="1.0"><path d="M41.742 33.779c0-1.749.374-3.361 1.122-4.835.748-1.485 1.793-2.652 3.136-3.499 1.353-.847 2.893-1.271 4.62-1.271.914 0 1.854.11 2.822.331.969.209 1.783.572 2.443 1.089s.99 1.215.99 2.096c0 .704-.209 1.292-.627 1.765-.407.473-.919.71-1.535.71-.297 0-.588-.049-.875-.148-.275-.1-.555-.204-.841-.314a5.29 5.29 0 00-.891-.297c-.308-.077-.699-.116-1.172-.116-.858 0-1.584.204-2.178.611a3.68 3.68 0 00-1.321 1.617c-.286.671-.429 1.425-.429 2.261a6 6 0 00.429 2.278c.286.693.699 1.243 1.238 1.65.55.407 1.199.61 1.947.61.848 0 1.7-.159 2.558-.478.859-.319 1.37-.479 1.535-.479.396 0 .759.116 1.089.347s.589.533.776.908c.198.363.297.737.297 1.122 0 .814-.358 1.502-1.073 2.063-.704.561-1.545.968-2.525 1.221-.979.264-1.864.396-2.657.396-1.309 0-2.508-.242-3.597-.726a8.39 8.39 0 01-2.822-2.063 9.37 9.37 0 01-1.832-3.103 11.112 11.112 0 01-.627-3.746zm-11.189 6.519V27.261c0-.782.242-1.431.726-1.948.495-.528 1.128-.792 1.898-.792.638 0 1.188.171 1.65.512.473.33.803.72.99 1.171 1.133-1.353 2.349-2.03 3.647-2.03.716 0 1.343.259 1.882.776.55.506.825 1.161.825 1.964 0 .825-.259 1.425-.776 1.799-.506.374-1.347.731-2.525 1.072-1.199.342-2.008.771-2.426 1.288-.418.506-.627 1.419-.627 2.739v6.486c0 .781-.247 1.441-.742 1.98-.484.528-1.117.792-1.898.792-.77 0-1.403-.264-1.898-.792-.484-.539-.726-1.199-.726-1.98zm-7.608 0V27.261c0-.782.242-1.431.726-1.948.495-.528 1.128-.792 1.898-.792.781 0 1.414.264 1.898.792.495.517.742 1.166.742 1.948v13.037c0 .781-.247 1.441-.742 1.98-.484.528-1.117.792-1.898.792-.77 0-1.403-.264-1.898-.792-.484-.539-.726-1.199-.726-1.98zm-.512-20.546c0-.858.308-1.601.925-2.228.616-.627 1.353-.941 2.211-.941.869 0 1.612.308 2.228.924s.924 1.365.924 2.245c0 .913-.308 1.672-.924 2.277s-1.359.908-2.228.908c-.858 0-1.595-.308-2.211-.924-.617-.617-.925-1.37-.925-2.261zM5.435 40.479l.594-4.439H4.76c-.562 0-.974-.159-1.238-.479-.264-.33-.396-.72-.396-1.171s.132-.831.396-1.139c.264-.319.676-.478 1.237-.478h1.717l.544-4.06H5.732c-.55 0-.957-.16-1.221-.479a1.818 1.818 0 01-.396-1.172c0-.462.132-.847.396-1.155.264-.319.671-.478 1.221-.478h1.782l.726-5.298c.077-.561.253-.995.529-1.303.286-.309.737-.463 1.353-.463.44 0 .803.127 1.089.38.286.242.43.578.43 1.007 0 .187-.045.594-.133 1.221l-.61 4.456h3.053l.71-5.298c.077-.561.253-.995.528-1.303.286-.309.737-.463 1.353-.463.44 0 .803.127 1.089.38s.429.589.429 1.007c0 .187-.044.594-.132 1.221l-.61 4.456h1.287c.572 0 .984.159 1.237.478.264.308.397.693.397 1.155 0 .452-.133.842-.397 1.172-.264.319-.676.479-1.237.479h-1.717l-.544 4.06h1.287c.572 0 .985.154 1.238.462s.379.693.379 1.155-.132.852-.396 1.171c-.253.32-.66.479-1.221.479h-1.8l-.708 5.281c-.077.55-.253.979-.528 1.287-.276.308-.727.462-1.354.462-.44 0-.808-.121-1.105-.363-.286-.253-.43-.594-.43-1.023 0-.22.05-.622.149-1.205l.61-4.439H9.413l-.71 5.281c-.076.561-.258.996-.544 1.304-.275.297-.726.445-1.353.445-.43 0-.792-.121-1.09-.363-.286-.253-.429-.594-.429-1.023 0-.22.05-.622.149-1.205zm7.526-7.706l.544-4.06h-3.07l-.544 4.06h3.07z" stroke-linejoin="round" stroke="#fff" stroke-width="5" fill="none"/><path d="M41.742 33.779c-.138-4.327 2.844-8.856 7.314-9.48 2.468-.276 5.395-.119 7.262 1.717 1.816 2.097-.913 5.504-3.321 3.687-2.127-1.06-5.185-.15-5.75 2.334-.718 2.323.07 5.786 2.83 6.242 1.993.58 3.878-1.568 5.725-.572 1.832 1.213 1.07 3.988-.85 4.66-3.853 2.063-9.235 1.044-11.573-2.81-1.124-1.7-1.64-3.752-1.637-5.778zm-11.189 6.519c.03-4.532-.06-9.07.045-13.599.256-2.293 3.526-2.938 4.831-1.126.82 1.172 2.318-1.973 4.035-1.399 2.244-.138 3.711 3.058 1.931 4.539-1.626 1.27-4.51.897-5.333 3.101-.45 2.473-.164 5.018-.245 7.525.18 1.509-.36 3.4-2.082 3.682-1.688.402-3.273-1.019-3.182-2.723zm-7.608 0c.03-4.532-.06-9.07.045-13.599.228-2.316 3.684-2.988 4.802-.973.737 1.472.296 3.189.417 4.78-.03 3.45.06 6.908-.046 10.355-.21 2.213-3.412 3.022-4.662 1.21-.383-.506-.561-1.144-.556-1.773zm-.512-20.546c-.135-2.537 3.233-4.197 5.127-2.462 2.067 1.519 1.2 5.22-1.363 5.59-1.898.435-3.839-1.186-3.764-3.128zM5.435 40.479l.594-4.439c-1.21.095-3.008.02-2.904-1.65-.085-1.68 1.747-1.696 2.955-1.617.806.084.374-1.247.634-1.786l.305-2.274c-1.21.096-3.008.02-2.904-1.651-.098-1.682 1.729-1.719 2.939-1.633.875.14.446-1.217.705-1.786.28-1.517.25-3.12.822-4.56 1.512-1.949 4.042.257 2.878 2.247l-.561 4.099h3.053c.316-2.011.442-4.063.9-6.044 1.064-2.307 4.354-.35 3.044 1.826l-.577 4.218c1.206-.088 3.02-.04 2.92 1.633.1 1.698-1.733 1.738-2.955 1.651-.806-.084-.374 1.247-.635 1.786l-.304 2.274c1.197-.08 3.023-.062 2.904 1.617.105 1.694-1.72 1.739-2.94 1.65-.892-.153-.46 1.21-.716 1.786-.278 1.507-.234 3.101-.81 4.528-1.505 1.94-4.072-.23-2.878-2.232l.562-4.082H9.412c-.319 2.005-.438 4.054-.903 6.028-1.009 2.133-4.239.647-3.074-1.589zm7.526-7.706c.18-1.353.362-2.707.544-4.06h-3.07l-.544 4.06h3.07z"/></svg>